<svg xmlns="http://www.w3.org/2000/svg" viewBox="0 0 1592.27 1788.17"><defs><style>.cls-1{fill:#fbe8e4;}.cls-2{fill:#fed4d5;}.cls-3{fill:#fff;}.cls-4{fill:#e54154;}.cls-5{fill:#f17983;}.cls-6{fill:#bc6961;}.cls-7{fill:#a04844;}.cls-8{fill:#ff99c9;}.cls-9{fill:#ff69b4;}.cls-10{fill:#ff0;}.cls-11{fill:#8cc63f;}.cls-12{fill:#ffdd8c;}.cls-13{fill:#fc6;}.cls-14{fill:#681515;}.cls-15{fill:#f49aa9;}</style></defs><title>login</title><g id="Design"><path class="cls-1" d="M751.06,1105.84c-25,28.31-46.67,62.8-46.23,100.55.35,29.93,14.6,57.9,30.76,83.09,10.77,16.78,23.22,33.51,41,42.6,15.25,7.8,32.87,9.17,49.32,13.9,28.65,8.25,53.17,26.47,79.27,40.88,55.27,30.54,118.19,44.2,175.79,70.08,39.15,17.58,75.81,40.8,116.28,55.07s87.12,18.67,125.08-1.36c23.77-12.54,42.09-33.52,65.21-47.23,33.91-20.1,74.94-22.92,112.78-34a264.88,264.88,0,0,0,149.25-113.52c4.7-7.57,9.17-15.58,16.09-21.19,8-6.51,18.41-9.08,28.13-12.56,43-15.39,77.47-52.68,89.45-96.74s1.13-93.67-28.15-128.71c-10.73-12.84-23.66-23.73-34.21-36.73-18-22.17-28.23-49.43-40.46-75.24a499.86,499.86,0,0,0-153.9-187.09c-39.48-29.18-83.16-52.42-121.81-82.68C1361.41,641.11,1325,598.89,1280,567.3s-103-51.94-155-34.19c-46.76,16-78.51,58.65-105.52,100A1854.23,1854.23,0,0,0,888.85,869.22c-12.33,26.69-24,53.91-31.79,82.33-5.61,20.53-5.49,44.77-14.25,64.27C826.22,1052.74,777.67,1075.67,751.06,1105.84Z" transform="translate(-449.79 -352.46)"/><path class="cls-1" d="M871.2,1678.41c6.91,6.46,17.06,7.85,26.52,8.22s19.32.14,27.8,4.33,14.81,14.65,10.79,23.21c-1.9,4.06-5.79,7.08-7,11.4-3.7,13.07,18.87,24.6,12.52,36.62-1.84,3.49-6,6.29-5.38,10.18.6,3.51,4.7,5,7.54,7.13,7.3,5.56,6.14,17.7-.08,24.46s-15.65,9.38-24.65,11.21a256.67,256.67,0,0,1-46.82,5.1c-8.88.15-18.2-.28-25.86-4.77-12.19-7.13-16.79-22.27-19.41-36.15a306.6,306.6,0,0,1-4.39-79.95c.59-7.72,1.52-15.59,4.82-22.59,2.84-6,17.95-25.47,26.21-24.49C865.48,1653.72,862.47,1670.25,871.2,1678.41Z" transform="translate(-449.79 -352.46)"/><path class="cls-1" d="M1539.41,1638.5c7.67,8.32,11.45,19.55,13.27,30.71,4.79,29.43-2.74,59.49-13,87.5-9.85,27-23.44,54.44-47.63,69.93-24.8,15.88-56.27,16.35-85.6,13.72-32.09-2.88-63.82-8.84-95.49-14.79-12-2.26-25.21-5.2-32.56-15s-2.55-28.08,9.7-28c-15.9-4.84-18.14-31.3-3.28-38.75-6.19-5.81-12.83-12.56-13-21-.28-10.73,10.52-19.12,21.21-20.14s21.09,3.3,31,7.53c-6.52-11.68-11.53-29.45.21-35.87,7.8-4.27,17.17.43,25.77,2.69,45.2,11.91,58.61-32.45,88.78-51.58C1464.32,1609.23,1518.78,1616.13,1539.41,1638.5Z" transform="translate(-449.79 -352.46)"/><path class="cls-2" d="M1748.68,1131.54a25.59,25.59,0,0,0-12.32,7.72,41.46,41.46,0,0,0-18,4c-21.14,10.21-33.24,35.87-33.49,58.62-.14,12.39,2.61,26.17,13.84,33.28,11.88,7.51,24.9,4.52,36.34-2,20.84-12,40.4-30.58,46.35-54.58C1786.37,1158.58,1775.76,1123.93,1748.68,1131.54Z" transform="translate(-449.79 -352.46)"/><path class="cls-2" d="M803.4,1220.91a38.8,38.8,0,0,0-11.26-13.39c-6.79-13.8-20.27-23.43-36.57-19.28-13.7,3.48-22.05,15.1-23.61,28.75-2.85,25,17,57.57,42.31,63.41,15,3.47,30.06-6,34.69-20.41C813.07,1247.15,809.15,1232.66,803.4,1220.91Z" transform="translate(-449.79 -352.46)"/><path class="cls-2" d="M900.22,1018.92c-16.6-16.6-38.53-1-52.38,10.4-14.43,11.84-24,26.32-33.54,42.19-4.58,7.65,2.51,18.23,10.52,17.89-4.87,20.88,18.37,40,36.84,24.19a21,21,0,0,0,18.46-.69c15.77-8.83,27.92-34.9,21.88-52.62C908.57,1046.53,912.43,1031.14,900.22,1018.92Z" transform="translate(-449.79 -352.46)"/><path class="cls-2" d="M1220.74,941.37c-18.44-54.13-35.8-106.26-44.23-163.13-9.34-63.12-3.86-126.76-7-190.16-.23-4.54-4.09-7.91-8.11-8.47a78.48,78.48,0,0,0-.12-21.65c-1-6.08-8.75-6.61-12.6-3.33-12.5,10.67-20.25,27.41-27.51,41.92-8.51,17-15.57,35.15-22.26,52.91-13.28,35.27-24.87,71.65-34.61,108.06a917.28,917.28,0,0,0-21.48,107.58c-5.38,37.73-12.74,78.59-5.08,116.36,4.59,22.64,40.1,22,45.13,0,8.06-35.24,6.33-72.62,11.36-108.45,5.1-36.33,13.09-72,21.17-107.75,2.85-12.66,6-25.22,9.24-37.76,0,6,.15,12,.38,17.93a561,561,0,0,0,32,166.89c4.49,12.67,9.26,25.29,15.29,37.32,5.9,11.76,13.23,28.59,25.61,35,7.66,3.94,17,3.37,23.1-3C1231.5,970.65,1224.91,953.62,1220.74,941.37Z" transform="translate(-449.79 -352.46)"/><path class="cls-2" d="M1699.6,1025.16c-10.52-12.08-25.44-18.93-36-31.11-10.81-12.46-13-26.8-19.37-41.43-7.17-16.43-18.79-31.13-29.61-45.25-6.35-8.27-20.87-8.83-23.84,3.12-4.34,17.46,1.3,31.11,5.74,47.83,4.52,17,6.18,34.35,13.66,50.51,3.37,7.26,9.38,16.19,17,24.83a13.41,13.41,0,0,0,1.35,6.41,43.46,43.46,0,0,0,9.49,13c5.27,4.91,10.26,7.82,17.48,8.55a8.63,8.63,0,0,0,5-1c11.29,5.65,22.92,7.76,33.32,3.38C1710.86,1056.79,1710.53,1037.71,1699.6,1025.16Z" transform="translate(-449.79 -352.46)"/><path class="cls-2" d="M1457.6,907.17c-4.43-8.37-18.87-4.75-18.23,4.94,1,15.31-.5,33.58,10.1,45.83,6.47,7.48,21.7,4,23.33-6.16C1475.43,935.44,1464.94,921.05,1457.6,907.17Z" transform="translate(-449.79 -352.46)"/><path class="cls-2" d="M1503.26,909.78c-1.69-8.26-11.92-13.79-19.81-11.24-9.1,2.94-12.6,10.85-11.24,19.8,1.15,7.57,1.44,15.63,5.5,22.32a15.56,15.56,0,0,0,15.42,7.39c5.67-.76,11.71-5.12,12.87-11.09C1507.81,927.69,1505.11,918.85,1503.26,909.78Z" transform="translate(-449.79 -352.46)"/><path class="cls-2" d="M1344,1469.29c-8.09-1.83-15.54-1.58-23.09-.6a7.92,7.92,0,0,0-4.24-7.34c-26.19-13.57-59.9-7.89-85.73,5.41l-3.76-.8c-12.29-2.61-24.83-3.16-37-5.91-10.92-2.47-23.63,7.43-19.41,19.41,11.13,31.64,57.78,43.33,87.27,47.84,31.17,4.77,81.69,5.54,98.32-27.54C1362.1,1488.4,1357.79,1472.4,1344,1469.29Z" transform="translate(-449.79 -352.46)"/><path class="cls-2" d="M939.6,1778.23c-11.32-3.69-21.59-.67-32.56,2.86-14.21,4.57-24.07,3.14-37.7-4-12.39-6.5-17.44-20.28-21.6-32.77-4.91-14.74-9.28-29.8-14.63-44.36-3.3-9-15.63-5.39-14.15,3.9,3.26,20.4-1.29,40.58,2.38,61,3.37,18.74,12.07,36,27.41,47.66,15.17,11.55,37,19.12,56,14.87,17.76-4,29-18,39.45-31.56C949.1,1789.53,947.75,1780.89,939.6,1778.23Z" transform="translate(-449.79 -352.46)"/><path class="cls-2" d="M1548.73,1688.13c-1.92-18.55-3.41-43.49-18.41-56.43-6-5.17-13.94-2.84-16.69,4.41-5.42,14.33-.77,30.77-.71,45.77,0,13.88-.78,28.18-4.28,41.65-6.61,25.44-32.05,41-55.23,50.23-27.16,10.84-56.47,12.93-85.39,11.16-14.54-.9-29.1-2.23-43.48-4.51-10-1.6-30.27-2.4-35-13.72-1.91-4.53-9.47-5.2-12.48-1.61-10.57,12.61-10.68,26.63.82,39.27,13.3,14.63,35.13,17.47,53.53,21.1,41.58,8.21,85.84,8.73,126.52-4.41,35.8-11.56,73.37-34,86.79-71.11C1551.66,1730.59,1550.81,1708.27,1548.73,1688.13Z" transform="translate(-449.79 -352.46)"/><ellipse class="cls-2" cx="520.42" cy="883.29" rx="114.9" ry="91.16"/><ellipse class="cls-2" cx="1084.48" cy="875.69" rx="114.9" ry="91.16"/><path class="cls-3" d="M1481.92,1008.47a23.73,23.73,0,0,0-12.8-5,15.14,15.14,0,0,0-12.87-1.71c-15.4,5.21-19.22,23.52-11.39,36.65,7.72,13,25.26,15,36.72,6.12C1493.33,1035.5,1493.75,1017.61,1481.92,1008.47Z" transform="translate(-449.79 -352.46)"/><path class="cls-3" d="M1049.8,1009.8c-10.11.48-18.92,3.43-25,12a20.78,20.78,0,0,0-3.12,6.78,24.56,24.56,0,0,0-2,4.19c-4,11.2,3.36,24.31,14.64,27.42a25.59,25.59,0,0,0,26.53-9c5.34-6.91,6.72-15.14,6.52-23.71C1067.19,1018.23,1059.51,1009.33,1049.8,1009.8Z" transform="translate(-449.79 -352.46)"/><path class="cls-4" d="M1337.79,1141.61c-1.85-16.51-2-42.34-16.12-53.79-13.72-11.15-42.65-7.19-59.15-8.06-20.13-1.07-47.82-6-65.44,5.7-6,4-9.12,14.16-2.51,19.52.55.45,1.15.83,1.72,1.25-6.86,12.9-9.68,29.32-10.41,44.93-.91,19.38,1.95,38.55,4.8,57.67,2.55,17.13,5.58,34.2,13.18,49.93,15.72,32.56,52.25,51,86.17,33.09,31.66-16.73,42.24-52.14,46.71-85.22A263.47,263.47,0,0,0,1337.79,1141.61Z" transform="translate(-449.79 -352.46)"/><path class="cls-5" d="M1330.65,1213.39c-5.43-32.71-35.23-51.39-66.36-54.72-28.72-3.08-71.49,5.14-84.76,34.22-3.46,7.58,1,15.62,8.69,16.21-8.73,28.52,6.4,56.35,30.11,72.73,24.09,16.65,57,21.58,82.12,4.2C1323.47,1270.08,1335.21,1240.85,1330.65,1213.39Z" transform="translate(-449.79 -352.46)"/><path class="cls-3" d="M1305.73,1080.18c-5.11,1.09-8.59,4.36-13.58,5.88-7.72,2.36-17.39,1.92-25.32,1.93-14.6,0-35.06.49-47.68-7.72-4.22-2.74-9.91,1.81-8.48,6.53,5.69,18.81,40.85,18.76,56.16,19.17,14.39.39,47.7,2.33,47.93-18.92C1314.81,1082.2,1310.18,1079.22,1305.73,1080.18Z" transform="translate(-449.79 -352.46)"/><path class="cls-6" d="M1998.39,1659.15c16.52-20.81,35.88-44.46,41.81-71,6.53-29.15-5.11-57.88-19.7-82.59-29.47-49.9-70.77-91.61-100-141.69-33.66-57.74-48.08-124.13-43.53-190.63.87-12.78-8.66-19.08-18.59-19,2.37-12.29,2.6-25.08,3.42-37.63,1.21-18.58,2.05-37.17,2.11-55.79a943,943,0,0,0-5.84-111.32c-8.56-73.65-26.47-145.87-56.87-213.63-31-69.1-76.76-129.25-127.93-184.64-26.2-28.36-53.55-55.73-81.17-82.72-29.32-28.65-61.68-47.7-99.49-63.2-40.19-16.48-82.08-28.94-125.08-35.28a435.21,435.21,0,0,0-63-5.18c-23,0-47.27-4.23-69.91-1.81a4.48,4.48,0,0,0-2.42,1.12c-203.09-33.07-405,109.32-515.6,270-58.83,85.47-98,184.11-113,286.8-17.41,119.25-7.1,239.93-13.95,359.82-3.82,66.9-14.89,131.84-35.17,195.73-9.22,29-22.93,57.74-44.91,79.33-5.28,5.18-13.83,11.61-20.7,18.88a12.86,12.86,0,0,0-7.88,5c-23.26,32.2-20.23,76.1,6.08,105.37,22.07,30.67,52.65,53.9,74.8,84.74,12.19,17,23.35,34.71,34.6,52.32,11.35,17.79,22.06,36.56,22.1,58.28a78.75,78.75,0,0,1-18.89,51c-12,14-40.72,32.21-51.89,7.42-6.11-13.55-24.94-3.3-22.56,9.51,6.31,34,35.39,62.4,69.25,69,28.27,5.54,56.3-3.67,77-22.09,9.6,19.29,23.92,35.92,47.72,37.28,18.9,1.07,31.19-9.32,38.88-23.49,11.19,13.39,26.12,22.55,45.42,19.69,36.39-5.4,47.71-40.84,68.91-65.12,19.47-22.29,51.15-32.63,68.17-57.16,7.63-11,6.83-21-1.58-31.07-13.46-16.2-29-31-43.47-46.18-.08-.08-.15-.13-.23-.2.91-6.28-4.25-14.11-12.63-12.55-63.94,11.9-68.84-64.46-67.06-108.33.58-14.26,1.52-29.38,9.22-41.86,6.49-10.51,16.44-12,24.86-19.55,6.81-6.11,5-13.29,5.31-21.7.37-11.54,4.16-21.43,9.92-30.69,5,1.21,10.71-.59,11.62-6.65,1.86-12.33-4.81-27-.91-38.81q-5.66-1.61,0-2.41l8.58-3,20-6.88c11.39-3.91,28.31-12.92,40.75-10.88,12.13,2,21.51,14.76,28.75,23.5,3.41,4.12,11.94,5.44,16.33,2.11a476.18,476.18,0,0,1,62.38-39.76c18.86-10.1,39.62-16.12,55.65-30.26a38.73,38.73,0,0,0,8-3.66,6.18,6.18,0,0,0,1.24-9.6c-15.89-15.34-46.67-17.44-67.26-23.19-23.69-6.62-47.46-14.14-70.42-23a653.59,653.59,0,0,1-68.44-31.45c-11.3-5.91-24.91-12.73-33.68-22.15-6.82-7.31-10.22-17.32-17.16-24.36a1,1,0,0,0-1.44,0,19.76,19.76,0,0,0-2.9,2.88c-12.58-7.95-30.14-4.52-45.61-7.59-.49-.09-1-.21-1.45-.32a609.57,609.57,0,0,1-65.39-43.3,13.83,13.83,0,0,0-10-3.12c-1.6-2.46-3.08-4.85-4.43-7.11-16.76-28-25.51-62.18-20.3-94.76a111.68,111.68,0,0,1,42.91-71A94.13,94.13,0,0,1,791,1102.19c10.14-1.84,32.91-3.92,36.92,9,5.23,16.92,34.27,14.92,32.41-4.39-1.12-11.64.84-21.61,8.73-30.67,4.76-5.46,5.78-12.14,3.39-17.87,6-6.42,9.6-14.59,8.19-24.65a28.33,28.33,0,0,0-2-7.11,134.61,134.61,0,0,0,28-30.27,38.91,38.91,0,0,0,24.88,6.13,37.12,37.12,0,0,0,25.91-13.69,213.06,213.06,0,0,0,40.27,19.72c7.43,2.73,18.65-3.11,19.79-11.23,20.33-144.83,49.37-292,125-419,.37.5.53,1.66.48,3.5.84,1.59.15,7.24.32,9.19.58,6.49,2.15,12.82,3.45,19.19,3.18,15.56,6.65,31,10,46.55q9.82,45,17.75,90.31t14.59,90.94c4.11,28.11,4.89,59,14.9,85.79,7.77,20.79,23.53,39.79,45.87,45.25,25.25,6.17,45.56-11.45,69.72-9.9,23.58,1.52,42.52,18,66.74,6.75,10-4.66,15.45-14.76,24.68-19.74,8.78-4.74,21.2,4,30.11,6.45,12.21,3.3,24.09,2.84,35.57-2.67,1.18-.56,11.82-8,11.86-8,3.08.29,11.23,9.64,14.41,11.64,18.83,11.78,41.07,13.7,61.63,7.72a62.7,62.7,0,0,0,49.4,17.31,82.21,82.21,0,0,0,43.88,28.61c4.44,16.51,18.75,28.45,37.19,32.86,14,3.34,29.09,2,42.57,7.46,11.06,4.44,20.24,12.79,27.36,22.18,13.58,17.93,20.26,39.26,25.87,60.7,1.75,41.37-8.45,82.81-38.92,113-15.22,15.07-33.63,27.05-54.12,33.55-11.74,3.72-21.72,5.45-30.39,10.22a9.52,9.52,0,0,0-13.24.24,11.15,11.15,0,0,0-2.81,6.77c-.24,2-.61,4.08-.72,6.11a9.9,9.9,0,0,0,.37,3c-23.42,36.52-56,71.54-93,94.66-41.28,25.84-91.94,34.49-138.66,45.22-7.12,1.63-12.29,12-7.43,18.28,5.89,7.67,10.56,18.21,18.4,23.94,6.27,4.58,14.32,7.29,20.82,11.91a258,258,0,0,1,31.17,26.11c20.6,51,48,99.71,64.15,152.44,9.24,30.26.73,57.58-16,83.45-14.49,22.46-35.17,61.31-64.7,64.85-11.8,1.42-15.65,14.67-5.92,21.86,21.95,16.21,34.5,46.07,46.35,69.77,12.81,25.6,26.7,51.23,50.14,68.67,56.73,42.21,125.82,15.14,174.15-26.08,33.33,29,85,35.8,122.66,9a51.71,51.71,0,0,0,7.17-5.57l.16-.12c2.23,4.18,14.76,7.84,18.5,9a69.37,69.37,0,0,0,42.14-.68c24.38-8.52,41.11-31.16,43.68-56.2,41.93-17,46.15-81.92,38.12-119.9-5.49-26-17.55-50.51-32.94-72-8.61-12-13.42-17.18-1.91-29A443.32,443.32,0,0,0,1998.39,1659.15Z" transform="translate(-449.79 -352.46)"/><path class="cls-7" d="M1112.21,1459.38c-34.87-5.05-69.77-11.36-104-19.76-30.46-7.46-64.24-11.82-89.61-31.77-12.39-9.74-21.85-22.53-30.2-35.75-7.46-11.8-13.43-27.48-25.46-35.38-13.82-9.09-26.86-4.75-42-3.16-14.43,1.52-27.8-4.07-39.1-12.65a17.82,17.82,0,0,0-2.95-1.8l.12-.83c1.68-13-17.15-13.19-21.22-2.87-29.54,74.9-55,155.79-52.83,237.35,1.06,40,12.51,77.38,21.25,116,3.74,16.56,6.67,33.26,6.14,50.31-.6,19.62-7.86,35.69-17.35,52.47-16.64,29.41-30.47,65.84-10,97.15,7.73,11.8,19.14,19.79,27.85,30.63,10.39,12.93.11,26.37-2,40.8-2.23,15.21,1.41,29.54,7.6,43.4,6.48,14.51,14,31.76,27.64,41,25.48,17.25,56.49,1.31,74.22-19.57,22.81-26.86,32.23-59.64,63.69-78.57,12.92-7.77,23.33-18,22.44-34.18-.48-8.76-4.27-16.37-9.2-23.44s-20.58-19-14.37-28.92c5.64-9-3.7-20.81-13.76-17.89-32.62,9.45-62.54-17.88-70.13-47.92-8.64-34.21,2.1-79.76,19.06-110.26,4-7.13,9.9-12.24,14.36-18.81,4.8-7,5.28-17.92,6.93-26.12,3.82-19,7.33-38.06,11.43-57,3.66-16.95,10.75-29.3,24.19-38.16,3.27,4.92,9.09,7.64,16.69,4.73,19.89-7.59,37.43-4.16,54.57,8,4.09,2.89,11.52,2.94,15.6,0,38.4-27.74,83.78-43.71,130.38-50.74C1125.2,1483.73,1125.28,1461.27,1112.21,1459.38Z" transform="translate(-449.79 -352.46)"/><path class="cls-7" d="M964.46,584.71c-8.2,8-17.81,12.4-25.19,21.58a242.92,242.92,0,0,0-17.42,24.4c-11.34,18.42-21.37,37.8-30.86,57.23-19.13,39.14-33.84,80.26-45.55,122.2S826.13,895.3,821.37,938.7a532.54,532.54,0,0,0-2.74,62.13c.08,11.18,0,22.44,1.49,33.54,1.52,11.33,5.51,21.12,7.89,32,2.43,11,21.43,11.9,23.19,0,1.44-9.73,4.79-19.34,6.31-29.26,1.55-10.15,1.92-20.37,2.74-30.59,1.66-20.78,4.36-41.46,6.78-62.16,4.79-41.05,13.41-81.71,24.1-121.61C901.88,782.63,916,743.47,931.44,705c7.41-18.49,15.94-36.39,24.49-54.36,4.31-9.05,8.27-18.33,12.05-27.61,4.29-10.55,4-21.21,7.72-31.75C978,584.69,969,580.25,964.46,584.71Z" transform="translate(-449.79 -352.46)"/><path class="cls-7" d="M954.18,842.83c-17.29,19.67-28.23,43.36-34.12,68.89-5.4,23.41-12.32,56-5.44,79.23,3.49,11.8,22.4,16.32,28.3,3.7,9.54-20.42,8.13-45.58,12.53-67.58,4.64-23.23,10.78-45.76,20.49-67.45C981.85,846.43,965.44,830,954.18,842.83Z" transform="translate(-449.79 -352.46)"/><path class="cls-7" d="M1238.67,846.73c-7.57-35.34-16.08-70.48-23.7-105.81-7.38-34.26-15.72-68.31-23.45-102.49-3.75-16.6-7.47-33.07-12.19-49.43-4.24-14.69-8.67-32.57-23.52-39.87-3.63-1.79-8.43-1.73-11.36,1.47a32,32,0,0,0-3.19,4.11c-4.86-3.59-12.5-4.12-17.33.39-28.22,26.31-47.26,62.29-64.26,96.49-17.88,36-31.83,74.16-43.05,112.71-11,37.86-19,76.2-22.64,115.47-1.83,19.52-3.16,39.24-3.14,58.85,0,15.2-1.22,38.33,10,49.94a7,7,0,0,0,9.8,0c10.33-10.69,10-30.17,11.79-44.32,2.36-19,4.36-37.89,7.72-56.74,6.73-37.76,14.88-75.57,25.85-112.33,10.79-36.15,24.6-71.14,40.06-105.53,12.24-27.22,27.38-53.26,39.76-80.43.07.82.16,1.65.24,2.47,1.75,16.87,4.13,33.47,7.09,50.17,6.32,35.61,12.41,71.35,20.22,106.67q11.36,51.38,23.52,102.56c3.94,16.54,8.93,32.79,13.77,49.1,5.2,17.48,10.19,36.52,21.22,51.33,7.09,9.53,27,11.4,29.31-3.83C1256.14,915.11,1245.5,878.64,1238.67,846.73Z" transform="translate(-449.79 -352.46)"/><path class="cls-7" d="M1315.31,857.7c-6.62-6.48-17.35-1.57-17.74,7.35-1,24.15,5.14,53.41,14.92,75.47,7.44,16.81,32.44,7.22,32.76-8.87C1345.77,906.05,1333.53,875.52,1315.31,857.7Z" transform="translate(-449.79 -352.46)"/><path class="cls-7" d="M1467.82,849.64c-4.28-34-12.18-67.36-22-100.14a610,610,0,0,0-36.14-92.1C1395.84,629,1380,595.27,1354,576c-6.69-5-18.52,1.64-17.48,10,3.7,29.8,20.08,58.29,30.67,86.14,11.29,29.69,21.3,60.19,29.93,90.75,8.45,29.88,14.26,60.19,20.12,90.65,3.07,15.9,5.57,31.87,7.6,47.93,1.95,15.47,3.28,32.64,11.55,46.17,6.27,10.26,23.22,11.66,29.13,0C1479.83,919.52,1471.6,879.68,1467.82,849.64Z" transform="translate(-449.79 -352.46)"/><path class="cls-7" d="M1555.53,859.68c-8.07-10.27-26.78.87-22.14,12.89,4.38,11.36,8.14,23,12.82,34.27s9,24.4,20.77,30c8.59,4.08,21,1.29,23.21-9.45C1595.41,902.56,1569.71,877.74,1555.53,859.68Z" transform="translate(-449.79 -352.46)"/><path class="cls-7" d="M1708.6,991.56c-26.63-27.16-23-66.86-28.58-102.33a653.47,653.47,0,0,0-31.32-122.34c-14.6-40-32.9-78.08-57.13-113.2-11.47-16.62-23.7-32.6-37.81-47.06a173.75,173.75,0,0,0-22.9-20.22c-9.4-6.77-18.77-10.56-28.59-16.15-7.16-4.07-16.53,4.33-11.71,11.71,5.36,8.21,9.51,18.06,14.67,26.58,5.34,8.82,11.29,17.07,17,25.64,11.52,17.26,23,34.6,33.13,52.72a613.37,613.37,0,0,1,50.26,116.39c12.61,40.5,19.95,81.7,25.87,123.61,3,21.52,7,47.73,17.91,68.81-7.24,10.85-3.64,28.15,10.89,31.41,5.54,1.24,9.49,1.93,15.12,1.34a20.36,20.36,0,0,0,5-1.19c.16.07.3.17.46.25l.22-.52h0C1702.87,1037.72,1728.32,1011.69,1708.6,991.56Z" transform="translate(-449.79 -352.46)"/><path class="cls-7" d="M1738.63,1563.94c4.89-30,4.67-59.91.53-90-4.72-34.27-14.48-67.14-26.81-99.39-11.6-30.37-23.37-64.32-48-86.5-6-5.44-15.77-1.7-16,6.63a101.32,101.32,0,0,0,.36,11.58c-24.6,32-52.59,64.21-86.69,85.83-42.55,27-92.59,39-141.84,46.85-17,2.74-13,30.7,4.06,30,.79,0,1.57-.09,2.35-.12a17,17,0,0,0,7,10.43c28.42,20.41,50.85,48.8,68.47,78.75,18.9,32.13,36.24,66.86,46.53,102.77,16.55,57.8,7.3,148.32-63.77,164.59-14.26,3.26-16.79,20.9-8.11,30.71,33.15,37.46,62.78,75.73,85.63,120.49,5.68,11.14,25.43,12.17,30.79,0,2.22-5,11.25-1.17,17.63,1.41,13,5.24,25.54,11.44,39.94,9.06,25.4-4.2,32.72-26.32,35.31-48.8,1.12-9.64,1.67-17.82,8.71-25,8.59-8.8,19.17-14.67,26.72-24.6,16.41-21.59,16.6-49.12,10.65-74.52-6.54-27.89-19.8-53.65-25.84-81.76-6.31-29.36-1.78-56.69,7.37-84.88C1722.68,1619.66,1733.91,1593,1738.63,1563.94Z" transform="translate(-449.79 -352.46)"/><path class="cls-8" d="M1318.77,1686.07q-8-37.74-15.94-75.48c-4.12-19.49-6-39.41-25.94-48.7s-46.14-10.33-67.72-11.48c-25.39-1.36-50.83-.14-76.18,1.32-26.11,1.5-52.23,3.36-78.36,5.06l-28.88.15a4.41,4.41,0,0,0-3.73,1.84c-12.79.71-25.58,1.34-38.36,1.79-6.94.25-12.6-1.91-17.84-5,.51-10.32-4.43-23.13-15.17-26.06-11.26-3.07-29.72,2.22-40.14,6.34l-.82.35a163.31,163.31,0,0,0-23.91,4.31c-4.54,1.27-8.31,3.84-9.44,8.65-1.08,4.66.26,10.25,1.2,14.83.37,1.81.84,3.6,1.35,5.38a46.15,46.15,0,0,0,.27,24.44c.07.26.23.77.43,1.31a59,59,0,0,0-13.76,29.55,89.15,89.15,0,0,0-.19,26,144,144,0,0,0,.29,21.38,16.3,16.3,0,0,0,7.41,12.6,4.64,4.64,0,0,0,5.7,2.46,18.32,18.32,0,0,0,11.87-1,17,17,0,0,0,15.53,5.68c19.41-2.78,29.38,17.94,20.74,33.44-4.06,7.28-2.19,18.33,5.85,22.3,5,2.46,8,8.08,3.49,12.79-7.22,7.57-5.92,20.19,3.3,25.6,7.44,4.36,19.32,9.55,9.91,17.33-8.28,6.86-20.88,9-31.23,9.37a16.61,16.61,0,0,0-16.3,16.3c-.6,34.91,37.45,42.47,64.66,47.39,37,6.68,69.79,3.24,105.71-6.82,68.07-19.06,144.58,2.5,207.41-36.09,13.46-8.27,8.32-30.67-8.23-30.38-1.26,0-1.7-2.27-1.67-5.7,8.84-3.1,13.49-14.52,8.93-23.82l-7.23-14.74c-.21-.42-.46-.74-.68-1.12a75.12,75.12,0,0,1,6.56-6.26c4.85-4.26,8.64-7.78,9.75-14.52,1.64-9.9-10.92-34.77,11.31-30.81C1311.21,1708.34,1321.48,1698.9,1318.77,1686.07Zm-433-133.64c.21-2.26,1.74-2.24,3.76-2.73l.46-.09a49.42,49.42,0,0,0-4.21,5.09A17.22,17.22,0,0,1,885.81,1552.43Z" transform="translate(-449.79 -352.46)"/><path class="cls-9" d="M1150.49,1800.53c-42.89-25.35-84.06-53.47-127.27-78.26-52.64-30.18-107.34-57.78-158.19-90.94a95.74,95.74,0,0,0,.61,19.37,144,144,0,0,0,.29,21.38,16.3,16.3,0,0,0,7.41,12.6,4.64,4.64,0,0,0,5.7,2.46,18.32,18.32,0,0,0,11.87-1,17,17,0,0,0,15.53,5.68c19.41-2.78,29.38,17.94,20.74,33.44-4.06,7.28-2.19,18.33,5.85,22.3,5,2.46,8,8.08,3.49,12.79-7.22,7.57-5.92,20.19,3.3,25.6,7.44,4.36,19.32,9.55,9.91,17.33-8.28,6.86-20.88,9-31.23,9.37a16.61,16.61,0,0,0-16.3,16.3c-.6,34.91,37.45,42.47,64.66,47.39,37,6.68,69.79,3.24,105.71-6.82,54.2-15.17,113.75-4.63,167.48-19.17Q1194.68,1826.57,1150.49,1800.53Z" transform="translate(-449.79 -352.46)"/><path class="cls-3" d="M1142.45,1716.91c-5.48-26.05-29.57-44-58.19-48.35-24.84-3.74-53.94,11.39-64.54,32.77a17.62,17.62,0,0,0-3.73,3.78c-11.69,15.88-12.52,38.22-2.3,55.14,11.53,19.1,34.91,24.88,55.58,27.1,21.14,2.28,43.77-2,57.28-19.8C1137,1753.76,1145.39,1730.91,1142.45,1716.91Z" transform="translate(-449.79 -352.46)"/><path class="cls-3" d="M1288,1635.62c-.34-2.53-2-5-4.89-4.89-2.36.1-5.26,2.17-4.89,4.89q2.11,15.87,4.24,31.73c.34,2.53,2,5,4.89,4.9,2.36-.11,5.26-2.18,4.89-4.9Q1290.09,1651.5,1288,1635.62Z" transform="translate(-449.79 -352.46)"/><path class="cls-3" d="M1289.31,1683.56c-6.29,0-6.3,9.79,0,9.79S1295.61,1683.56,1289.31,1683.56Z" transform="translate(-449.79 -352.46)"/><path class="cls-10" d="M1240,1614.45q-.4-3-1-5.91c1.72-1.73,2-5.23,0-6.91a23.3,23.3,0,0,0-3.06-2.13,17.94,17.94,0,0,0-11.64-9.42,30.77,30.77,0,0,0-18.54,1.47,20.81,20.81,0,0,0-10.09,10.36,4.59,4.59,0,0,0-2.69-.83c-2.45,0-5.13,2.24-4.89,4.89.6,6.43,1.07,12.88,1.82,19.3a16.85,16.85,0,0,0,2.37,7.74,12.29,12.29,0,0,0,8.43,5,63.11,63.11,0,0,0,19.45.11c5.72-.81,12.23-2.13,16.33-6.57C1240.79,1626.83,1240.81,1620.43,1240,1614.45Z" transform="translate(-449.79 -352.46)"/><path class="cls-10" d="M962.83,1551.37a17.55,17.55,0,0,0-3.07-6.8A6.35,6.35,0,0,0,958,1543a57.72,57.72,0,0,0,.23-6.58,5.24,5.24,0,0,0-4.59-4.79c-1-3.91-6.34-6.08-8.82-1.63-.54,1-1.07,1.91-1.6,2.86a5.07,5.07,0,0,0-7.33,1.23l-.14.22c0-.59,0-1.18,0-1.79-.32-4.53-6.68-7-9.11-2.46-.5.94-1,1.88-1.52,2.83-1.77-2.8-6.49-3.27-8.39,0l-1.26,2.17c-1.22-3.57-7-5.26-8.9-1.09-1,2.1-1.94,4.21-2.92,6.31a1.55,1.55,0,0,0,0-.23c1.2-5.18-6.31-8.91-8.93-3.77-.84,1.64-1.59,3.3-2.3,5-2.84-2.16-8.08-1-8,3.67q.24,12.94-.21,25.89a4.57,4.57,0,0,0,3.74,4.61c-.19,4.56,7.16,6.43,9.11,2.2l1.22-2.62a4.73,4.73,0,0,0,6.37-1.77l1.94-3.35c1.33,3.61,6.57,5,8.78,1,.62-1.1,1.22-2.21,1.84-3.31,1.57,3.41,6.2,4.62,8.62.78.58-.92,1.15-1.84,1.73-2.75,1.51,2.4,5.24,3.33,7.51,1.28,1.67,3,6.88,4.07,8.69.32l3.19-6.57a5.46,5.46,0,0,0,4.74.33,14.35,14.35,0,0,0,0,1.47c.25,4.65,6.64,6.89,9.11,2.46l.08-.15a4.44,4.44,0,0,0,2-1.43C965.71,1559.83,966.22,1554.7,962.83,1551.37Z" transform="translate(-449.79 -352.46)"/><path class="cls-11" d="M1140.46,1658.27a111.47,111.47,0,0,0-58.07-26.56c-6.94-.94-13.72,1-17.59,6.37-16,1.68-31.08,7.19-42.73,17.74a15.41,15.41,0,0,0-6.59,2.83c-23.13,16.59-38.62,40.31-41,69.1-2.15,25.77,7.41,58.9,30.85,73,12.47,7.54,28.64,10.33,42.71,13.26,15.54,3.25,31.68,5.42,47.55,3.88,27.17-2.64,51.21-14.81,66.64-37.68a14.59,14.59,0,0,0,2.75-9.69,16.64,16.64,0,0,0,8.89-13.31C1177.64,1721.49,1169.59,1681.14,1140.46,1658.27Zm.78,99c0,.16,0,.31,0,.47a16.46,16.46,0,0,0-7.16,6.08c-21.74,32.21-69.23,22.43-100.36,13.17-39.51-11.76-30.77-66-4.54-88,3.82.12,7.76-1.4,11.17-5.26,17.88-20.25,57.08-16.06,77.61-1.58a91.11,91.11,0,0,1,10.55,10.28c.37.42.75.8,1.12,1.17C1142.59,1711.21,1143.52,1735.79,1141.24,1757.26Z" transform="translate(-449.79 -352.46)"/><path class="cls-12" d="M1524.12,1602.18c-8.87-18.3-23.35-31.51-38-44.81-11.93-28.68-36.86-69.73-69.61-70.16,1.25-11.22-1.19-22.89-10-30.14-14.78-12.08-42.44-3.75-58.7.63-19.12,5.14-12.8,29.82,4.33,32-8-1-6.92,1.37-13.28,6.35a102.66,102.66,0,0,1-14.23,8.93c-9.53,5.18-19.69,8.87-30,12-20,6.07-43,12-62.57,1.6a15.58,15.58,0,0,0-17.29,1.25c0-.24.07-.45.07-.7,0-8.12-7.49-17.2-16.3-16.3a156.27,156.27,0,0,1-15.88,1.09c-5,0-9-1.9-13.51-2.53.75-1.23,1.52-2.69,1.74-3,2.14-2.83,5-6.85,8.51-7.93,20-6.15,11.46-37.63-8.67-31.44a44.1,44.1,0,0,0-9.61,4.43,18.83,18.83,0,0,0-6.51,2.19c-5.38,2.92-11-.93-16.53-.59a23.39,23.39,0,0,0-16.14,8.29,22.07,22.07,0,0,0-5.14,13.42c-6.17,2.08-12.32,4.21-18.47,6.34a356,356,0,0,0-91.49,33.77q-17.16,6.75-34.23,13.75c-19.14,7.88-10.76,39.44,8.66,31.44,5.43-2.23,10.9-4.37,16.34-6.56a15.19,15.19,0,0,0,10.94-2.15c4.34-2.6,8.75-5.09,13.19-7.48,4.33-1.69,8.68-3.34,13-5l.2.15a13.59,13.59,0,0,0,7.43,3.24c8.76,1.85,19.72-1,28.13-1.85q20.41-2,40.78-4.53,38.19-4.77,76.12-11.31a16.75,16.75,0,0,0,2.14-.51c3.1-.14,6.12-.36,9-.66a20.6,20.6,0,0,0,9-3c-.57,5.42,1.66,11,8.06,14.36,14.46,7.65,30.62,10.4,47.08,9.84a16.91,16.91,0,0,0,4.1,2.58,130.62,130.62,0,0,1,23.22,13.13c10.42,17.06,17.7,35.72,20,55.72,1.75,15.27-2.14,32.84,13.09,42.31,11.88,7.4,27,10.27,41.3,8.53,16.4,6.6,35.37.48,47.18-14.5.59-.75,1.09-1.53,1.63-2.3a17.65,17.65,0,0,0,2.89-1,47,47,0,0,0,20.93-17.89,48.87,48.87,0,0,0,6.09-13.78,20.35,20.35,0,0,0,.45-4.27,18,18,0,0,0,7.14-5,17.8,17.8,0,0,0,3.08-5.37,54.83,54.83,0,0,1,13.68-1.75c12.81,0,24,4.32,34.46,11.47C1516.41,1634.43,1530.62,1615.58,1524.12,1602.18Zm-144-117.73c1.82-.16,3.65-.27,5.48-.33q6.93-.57-1.46.77c-1.48,2.69-2.92,5.1-4.42,7.28A31.78,31.78,0,0,0,1380.14,1484.45Z" transform="translate(-449.79 -352.46)"/><path class="cls-12" d="M1589.51,2048.26c-.38-.7-.76-1.41-1.15-2.11a14.21,14.21,0,0,0-8.2-6.81,1024.3,1024.3,0,0,0-99.57-168C1473,1861,1464.33,1844.51,1453,1838c-12.32-7.12-29.29-1.3-42.48-.54-34.76,2-68.76-3.3-101.59-14.67-8.92-3.09-15.55,1.56-18.36,8.24a15.06,15.06,0,0,0-4.26,1.63,239.61,239.61,0,0,0-27.47,19,16.47,16.47,0,0,0-1.51,1.33l-16.29,1.73-38.66,4.11-87,9.24c-52.27,5.56-105.65,15.12-158.2,8.44-5.48-2.75-12.3-2.59-18,3-44.46,43.86-80.73,95.79-105.41,153.22-5.42,12.6-10.69,25.59-4,38.8,5.68,11.17,17.54,18.31,28.89,22.68,30.76,11.83,68,12.44,100.43,17.16,71.08,10.32,138.61,16.21,209.89,25.11s144.18,2.56,215.43-8.24c38.16-5.79,77.43-1,113-15.82,17-7.08,33.7-14.7,50.29-22.62,13.43-6.42,33.38-11.89,41.75-25C1592.68,2059.74,1592.24,2053.27,1589.51,2048.26Z" transform="translate(-449.79 -352.46)"/><path class="cls-13" d="M1186.59,1506c-6.87-1-11.5-8.41-15.84-13.35q-9.24-10.5-17.67-21.65c-5.28-7-14.08-10.65-22.3-5.84-6.93,4-11.18,15.22-5.85,22.3,7.91,10.53,16.12,20.82,24.89,30.65,7.61,8.51,16.19,17.68,28.1,19.33,8.71,1.2,17.5-2.12,20-11.39C1200.06,1518.41,1195.36,1507.2,1186.59,1506Z" transform="translate(-449.79 -352.46)"/><path class="cls-13" d="M1411.58,1464.77c-4.43-5.62-10.45-8.71-17.44-9.92-4.81-.84-15.74,2.57-19.67.53-18.6-9.66-35.11,18.47-16.46,28.15.24.13.48.23.72.34-3.65,27.22-43.67,39-67.87,33.06-20.37-5-29.06,26.41-8.66,31.44,13.59,3.36,29.54,3.11,45-.36,3,6.18,9.51,10.41,18.1,7.76,14.33-4.43,26.38-12,37.77-21.63,10.59-9,23-19.61,29.7-32C1419,1490.72,1420,1475.45,1411.58,1464.77Z" transform="translate(-449.79 -352.46)"/><path class="cls-13" d="M1031.82,1929.9a951,951,0,0,0-57.93,167.74c-4.93,20.39,26.5,29.09,31.44,8.67a905.79,905.79,0,0,1,54.65-160C1068.55,1927.39,1040.46,1910.79,1031.82,1929.9Z" transform="translate(-449.79 -352.46)"/><path class="cls-13" d="M1232.52,2109.66c-3.42-6.19-2.08-16.78-2.52-23.66q-.62-9.64-1.24-19.29l-3.09-48.24q-3-46.62-6-93.25c-1.34-20.83-34-21-32.61,0l6.81,106.12,3.3,51.45c.94,14.59-.07,30.22,7.18,43.33C1214.52,2144.49,1242.69,2128.06,1232.52,2109.66Z" transform="translate(-449.79 -352.46)"/><path class="cls-13" d="M1463.17,2091.29A1067.24,1067.24,0,0,0,1376,1907.58c-10.76-18-39-1.61-28.15,16.45a1022.54,1022.54,0,0,1,83.9,175.93C1438.84,2119.52,1470.36,2111.07,1463.17,2091.29Z" transform="translate(-449.79 -352.46)"/><path class="cls-14" d="M1075.67,982.34c-35.89,0-65,34.19-65,76.37s29.1,76.37,65,76.37,65-34.19,65-76.37S1111.57,982.34,1075.67,982.34Zm-32.49,63.42c-21,0-21-32.6,0-32.6S1064.15,1045.76,1043.18,1045.76Z" transform="translate(-449.79 -352.46)"/><path class="cls-14" d="M1429.9,974.21c-35.89,0-65,34.2-65,76.37s29.1,76.37,65,76.37,65-34.19,65-76.37S1465.8,974.21,1429.9,974.21Zm46.58,57-2.55,3.3a16.37,16.37,0,0,1-7.19,4.19l-4.34.58a16.74,16.74,0,0,1-16.3-16.3v-3.25a16.22,16.22,0,0,1,2.23-8.23l2.54-3.3a16.4,16.4,0,0,1,7.2-4.19l4.33-.58a16.74,16.74,0,0,1,16.3,16.3V1023A16.28,16.28,0,0,1,1476.48,1031.19Z" transform="translate(-449.79 -352.46)"/><path class="cls-14" d="M1202.42,1089.56l89.28.15,12.48,0a57,57,0,0,1,7.16.15l-2.16-.29a16.22,16.22,0,0,1,4,1.08l-1.94-.82a17.24,17.24,0,0,1,3.68,2.16l-1.65-1.27a22.15,22.15,0,0,1,3.87,3.93l-1.28-1.65a37,37,0,0,1,4.69,8.28l-.82-2c3.21,7.62,4.81,15.86,5.91,24-.1-.73-.2-1.45-.29-2.17a260.2,260.2,0,0,1,1.85,37.65c-.17,12.89-1,25.78-2.19,38.61q-.9,9.54-2.17,19c.09-.72.19-1.44.29-2.16-.72,5.31-1.52,10.62-2.49,15.89a97.17,97.17,0,0,1-2.24,10.12,149.8,149.8,0,0,1-5.42,15c.27-.64.55-1.29.82-1.94a100,100,0,0,1-12.59,22.23l1.27-1.65a63.83,63.83,0,0,1-11.16,11.3L1293,1284a53.11,53.11,0,0,1-11.52,6.77l2-.82a54.29,54.29,0,0,1-13.77,3.71l2.17-.29a79.52,79.52,0,0,1-20.39,0l2.17.29a67.25,67.25,0,0,1-17-4.6l2,.82a64.68,64.68,0,0,1-14.08-8.28l1.65,1.27a74,74,0,0,1-13-13.12l1.27,1.65a101.1,101.1,0,0,1-12.81-22.34l.83,2a145.85,145.85,0,0,1-8.77-29.87c-.55-2.92-1-5.85-1.41-8.8.09.73.19,1.45.29,2.17-2.59-19.34-1.82-39-.07-58.34q.87-9.56,2.15-19.06l-.3,2.17a314.35,314.35,0,0,1,7-37q1.15-4.47,2.56-8.88a8.22,8.22,0,0,0-5.7-10,8.32,8.32,0,0,0-10,5.69,244.63,244.63,0,0,0-8.13,36.29c-2.25,14.19-3.87,28.5-4.76,42.84a261.08,261.08,0,0,0-.15,35.49,184.91,184.91,0,0,0,5.5,33.63,133.53,133.53,0,0,0,12.33,31.07,87.05,87.05,0,0,0,20.14,24.81,72.86,72.86,0,0,0,30.31,15.15,83.51,83.51,0,0,0,18.91,2,72.46,72.46,0,0,0,20.6-2.84,63.35,63.35,0,0,0,31.1-21.82c8.19-10.5,13.87-22.43,18.24-35a104.55,104.55,0,0,0,4-15.23c1.31-7,2.3-14,3.21-21q1.58-12.15,2.56-24.37,1.11-13.59,1.46-27.22c.21-9,.14-18-.4-27a185.73,185.73,0,0,0-3.26-26.28,73.67,73.67,0,0,0-7.09-20.52c-2.94-5.37-7.35-10.62-13-13.17a27.06,27.06,0,0,0-11.47-2.41l-26.69,0-53.13-.09-25.93,0c-4.27,0-8.35,3.75-8.15,8.15a8.29,8.29,0,0,0,8.15,8.15Z" transform="translate(-449.79 -352.46)"/><path class="cls-14" d="M1379.41,936.54c.7-1,1.42-2,2.17-3l-1.28,1.65a69.46,69.46,0,0,1,12.26-12.33l-1.65,1.27a67.53,67.53,0,0,1,14.89-8.71l-2,.82a75.66,75.66,0,0,1,19.25-5.18l-2.16.29a90.46,90.46,0,0,1,23.65.11l-2.17-.29a104.55,104.55,0,0,1,26.61,7.3l-2-.82a100.37,100.37,0,0,1,22,12.78l-1.65-1.28a78.69,78.69,0,0,1,14.17,14l-1.27-1.65a59.26,59.26,0,0,1,7.61,12.88c-.27-.65-.54-1.3-.82-1.95a47.11,47.11,0,0,1,3.31,11.93c-.09-.73-.19-1.45-.29-2.17.12.89.21,1.78.28,2.68a8.63,8.63,0,0,0,2.39,5.76,8.25,8.25,0,0,0,5.76,2.39c4.15-.18,8.49-3.6,8.15-8.15A57.94,57.94,0,0,0,1522,946a67.29,67.29,0,0,0-9.62-15.36c-7.81-9.73-18.22-17.56-29.22-23.33a114.69,114.69,0,0,0-39.63-12.25,89.22,89.22,0,0,0-39.31,3.71,75.64,75.64,0,0,0-34.67,24c-1.45,1.82-2.86,3.66-4.19,5.57a8.15,8.15,0,0,0,9.21,12,9.14,9.14,0,0,0,4.87-3.74Z" transform="translate(-449.79 -352.46)"/><path class="cls-14" d="M1117.18,935.3a87.59,87.59,0,0,0-30.86-26.23,92.81,92.81,0,0,0-39.45-10,84.37,84.37,0,0,0-39.37,8.86A88.18,88.18,0,0,0,977.74,932c-8.32,10.51-14.65,22.57-17.56,35.72-.34,1.53-.63,3.06-.87,4.61a8.9,8.9,0,0,0,.82,6.28,8.16,8.16,0,0,0,11.15,2.92c1.67-1.08,3.43-2.82,3.75-4.87a77.1,77.1,0,0,1,5.14-17.93l-.82,2a83.1,83.1,0,0,1,10.53-18l-1.28,1.64a85.88,85.88,0,0,1,15.23-15.25l-1.65,1.28a81.26,81.26,0,0,1,17.63-10.34l-1.94.82a75.63,75.63,0,0,1,19.15-5.23l-2.17.29a80.52,80.52,0,0,1,20.75,0l-2.17-.29a85,85,0,0,1,21.46,5.86l-1.94-.82a83.43,83.43,0,0,1,18.27,10.63l-1.65-1.28A77.56,77.56,0,0,1,1103.5,944l-1.28-1.65.88,1.17a8.91,8.91,0,0,0,4.88,3.75,8.35,8.35,0,0,0,6.28-.82,8.22,8.22,0,0,0,3.74-4.87c.46-2,.46-4.56-.82-6.28Z" transform="translate(-449.79 -352.46)"/><path class="cls-14" d="M888.7,1823.63c7.28,23.73,21,47,43.33,59.3a59.81,59.81,0,0,0,23.64,7.51c5,.45,10.15-.39,15.16-.81l27.36-2.27,110.61-9.19,55.52-4.6c17-1.42,34.09-2.53,51.06-4.43,28.92-3.23,59.52-10.34,78.72-34.08a91.38,91.38,0,0,0,7.52-10.62c2.19-3.66.94-9.11-2.93-11.15a8.31,8.31,0,0,0-11.15,2.92c-1,1.75-2.14,3.46-3.32,5.12-.26.37-.52.73-.79,1.09-.15.21-1,1.34-.34.47s-.16.2-.32.41l-1,1.15a70.34,70.34,0,0,1-5.39,5.79c-1.26,1.21-2.56,2.36-3.9,3.47l-1,.76c-.88.73,1.14-.83.21-.16-.74.53-1.46,1.08-2.21,1.6a78,78,0,0,1-8.8,5.25q-2.28,1.17-4.64,2.2c-.26.12-1.47.62-.42.19s-.17.07-.43.17c-.85.34-1.7.67-2.56,1-3.26,1.21-6.58,2.25-9.94,3.16a174.47,174.47,0,0,1-21.14,4.2l-.48.07c1.17-.16-.19,0-.47.06l-2.5.31c-1.88.23-3.75.44-5.63.63-3.52.37-7,.69-10.58,1-8.72.74-17.45,1.45-26.17,2.18l-53.93,4.48-108.24,9c-17.77,1.48-35.54,3.24-53.32,4.43a30.62,30.62,0,0,1-3.71,0c-.65,0-1.29-.13-1.93-.18-.93-.07,2.52.4.9.12l-1.31-.22a55.33,55.33,0,0,1-9.74-2.9c-1.13-.44,2.07.93.42.16l-1.24-.56c-1-.45-1.9-.93-2.83-1.43a61.42,61.42,0,0,1-5.44-3.29q-1.32-.89-2.58-1.83c-1.62-1.2,1.06.87,0,0-.54-.44-1.08-.87-1.61-1.32a74.23,74.23,0,0,1-5.44-5c-1.87-1.92-3.63-3.92-5.3-6a9,9,0,0,0-.61-.77c1.33,1.34.7.92.37.46s-.8-1.08-1.19-1.63q-1.36-1.9-2.63-3.87c-1.7-2.64-3.26-5.37-4.7-8.16q-1.08-2.08-2.06-4.22c-.39-.83-.74-1.66-1.12-2.49-.48-1.06.54,1.33.1.24-.2-.48-.4-1-.59-1.45-1.39-3.46-2.61-7-3.7-10.55-1.25-4.07-5.76-7.08-10-5.69-4.1,1.32-7,5.66-5.69,10Z" transform="translate(-449.79 -352.46)"/><path class="cls-14" d="M875.12,1678.87c-1-4.92-2-9.86-2.88-14.83q-.59-3.43-1.06-6.89c.25,1.77,0,.19,0-.26l-.21-1.73c-.16-1.38-.3-2.76-.43-4.15a125.4,125.4,0,0,1-.52-14.76c.06-2.35.2-4.7.44-7l.15-1.33c.24-2.22-.3,1.75.06-.45.21-1.3.43-2.59.7-3.88.44-2.11,1-4.21,1.63-6.28.32-1,.67-2,1-3,.12-.31,1-2.31.14-.44.26-.59.52-1.17.8-1.75a48.8,48.8,0,0,1,3.29-5.92c.59-.92,1.23-1.79,1.86-2.69.75-1.06-1.25,1.44.15-.17.51-.59,1-1.19,1.52-1.77a49.63,49.63,0,0,1,5.24-5l1.07-.86c-1.48,1.15.34-.22.55-.36,1.12-.79,2.27-1.54,3.44-2.25a66.71,66.71,0,0,1,6.07-3.25l1.89-.87c1.42-.64.26-.11,0,0,1.29-.53,2.6-1,3.91-1.51,9.72-3.5,19.9-5.48,30-7.38q18.78-3.51,37.64-6.55c25.28-4.07,48.16-7.15,73.55-9.91,49.91-5.42,100-8,150.17-8.68,9-.12,18-.35,27-.2,4.79.07,9.57.24,14.35.59,2.32.17,4.65.38,7,.65l1.62.2c-2.15-.26,0,0,.37.06,1.24.18,2.48.39,3.71.62a71,71,0,0,1,11.53,3.16c1.65.61-1.29-.6-.16-.06l1.38.62c.89.42,1.78.87,2.66,1.33a61.61,61.61,0,0,1,5.47,3.26c.86.57,1.67,1.24,2.54,1.79s-1.53-1.25-.09-.07c.43.35.87.7,1.29,1.06q2.33,2,4.45,4.16c1.27,1.31,2.49,2.69,3.65,4.11.09.11,1.26,1.5.39.46s.27.37.36.5c.66.88,1.29,1.79,1.91,2.71a83.54,83.54,0,0,1,5.92,10.47c.41.86.81,1.72,1.19,2.59.19.43.41.87.57,1.31-.77-2.08-.1-.21.06.19.8,2,1.53,4,2.22,6a184.14,184.14,0,0,1,6.37,24.91c1.68,8.73,2.94,17.52,4.14,26.31.08.63.17,1.25.25,1.87-.25-1.9-.09-.72,0-.3.15,1.13.31,2.27.46,3.4q.57,4.32,1.16,8.64c.28,2,.56,4.07.85,6.1.2,1.37.4,2.74.59,4.11l.3,2.2c.08.57.08.58,0,0l.24,1.76q1.2,9.22,2.17,18.48c.44,4.23,3.43,8.37,8.15,8.15,4-.18,8.63-3.61,8.15-8.15-1.3-12.37-3-24.68-4.73-37-.08-.62-.17-1.23-.25-1.84,0-.4-.34-2.52,0-.3l-.42-3.09q-.55-4.2-1.12-8.38c-.62-4.57-1.26-9.13-2-13.69-2.78-17.93-6.58-35.89-14.59-52.3s-21.15-29.58-38.19-36.66c-8.63-3.59-18.24-4.74-27.47-5.51-9.87-.83-19.79-.88-29.69-.76-49.43.57-98.72,2.43-147.94,7.25q-39.55,3.87-78.87,9.81-19.33,2.91-38.58,6.32c-11.32,2-22.75,3.89-33.88,6.82-10.24,2.7-20.61,6.48-29.32,12.62a58.8,58.8,0,0,0-20.32,24.38c-8.66,19.86-7.09,42-3.56,62.8.84,5,1.83,9.91,2.88,14.84.88,4.17,6,7,10,5.69a8.35,8.35,0,0,0,5.7-10Z" transform="translate(-449.79 -352.46)"/><path class="cls-14" d="M967.51,1723.24a99.56,99.56,0,0,0-.47,22.56,98.25,98.25,0,0,0,3.48,19,75.69,75.69,0,0,0,11.94,23.87,86.58,86.58,0,0,0,19.83,19,101.89,101.89,0,0,0,23.7,11.92c16.63,6,34.88,8.11,52.48,7,18-1.15,35.84-5.46,51.9-13.79a91.49,91.49,0,0,0,41.84-45.16,106.7,106.7,0,0,0,8.44-34.63,97.27,97.27,0,0,0-3.43-33.35c-6.32-22.15-20.77-41.39-39.55-54.51-17.76-12.41-39.71-18.8-61.32-18.62a110,110,0,0,0-64.61,21.54,115.18,115.18,0,0,0-25.42,26.16,109.86,109.86,0,0,0-15.08,31.11,101.67,101.67,0,0,0-3.44,15.71c-.32,2.27-.39,4.22.82,6.28a8.15,8.15,0,0,0,11.15,2.93c1.65-1.07,3.47-2.84,3.75-4.88a101.9,101.9,0,0,1,7.09-25.75c-.28.65-.55,1.3-.83,1.94a105.24,105.24,0,0,1,13.48-23l-1.28,1.65a105.06,105.06,0,0,1,18.49-18.49l-1.65,1.28a103,103,0,0,1,22.7-13.26l-1.94.82a104.29,104.29,0,0,1,26.05-7.12l-2.16.29a103,103,0,0,1,27.28,0l-2.17-.29a100.79,100.79,0,0,1,25.21,6.88l-2-.82a96.74,96.74,0,0,1,21.33,12.46l-1.65-1.27a93.93,93.93,0,0,1,16.53,16.51l-1.28-1.65a95,95,0,0,1,12.23,20.91l-.83-2a86.49,86.49,0,0,1,5.88,21.65l-.3-2.17a94.2,94.2,0,0,1,0,24.88c.1-.73.2-1.45.29-2.17a96.05,96.05,0,0,1-6.59,24.33c.27-.65.54-1.3.82-2A89.79,89.79,0,0,1,1146.7,1779l1.28-1.65a81.89,81.89,0,0,1-14.3,14.34l1.65-1.28a92.58,92.58,0,0,1-20.55,11.79l2-.82a122.68,122.68,0,0,1-31,8.29l2.17-.29a134.84,134.84,0,0,1-35.73,0l2.17.29a115.68,115.68,0,0,1-29.07-7.76l2,.82a90.24,90.24,0,0,1-19.89-11.45l1.65,1.28a75,75,0,0,1-13.42-13.34l1.27,1.65a69.41,69.41,0,0,1-8.91-15.32c.27.65.54,1.3.82,2a80,80,0,0,1-5.26-20c.1.73.19,1.45.29,2.17a99.68,99.68,0,0,1,0-26.45c.25-1.91-1.1-4.47-2.39-5.77a8.17,8.17,0,0,0-11.53,0l-1.27,1.65A8.09,8.09,0,0,0,967.51,1723.24Z" transform="translate(-449.79 -352.46)"/><path class="cls-14" d="M889.44,1581.48a119.73,119.73,0,0,1-4.33-19.62c.09.72.19,1.44.29,2.17q-.64-4.87-.89-9.78a52.36,52.36,0,0,1,.07-9c-.1.72-.19,1.44-.29,2.16a15,15,0,0,1,.91-3.48c-.28.65-.55,1.3-.82,1.95a11,11,0,0,1,1.18-2l-1.27,1.65a10.81,10.81,0,0,1,1.83-1.81l-1.65,1.27a17.48,17.48,0,0,1,3.58-2l-1.95.82a113.7,113.7,0,0,1,17.35-5c6.18-1.46,12.44-2.61,18.73-3.47l-2.17.29c6.06-.81,12.15-1.36,18.26-1.61q4.51-.2,9.05-.17a68.27,68.27,0,0,1,8.7.34l-2.16-.29a12.5,12.5,0,0,1,3.06.83l-1.95-.83a9.9,9.9,0,0,1,1.68,1l-1.65-1.27a10.29,10.29,0,0,1,1.3,1.34L955,1533.2a15.66,15.66,0,0,1,1.69,3l-.83-2a103.72,103.72,0,0,1,4.43,13.88,148.4,148.4,0,0,1,3.05,14.78c.29,1.88,2.17,3.95,3.74,4.87a8.36,8.36,0,0,0,6.28.82,8.25,8.25,0,0,0,4.88-3.75,9.51,9.51,0,0,0,.82-6.28,147.77,147.77,0,0,0-3.66-17q-1.14-4.1-2.52-8.11c-1-2.83-1.93-5.82-3.69-8.26a16.62,16.62,0,0,0-9.83-6.88,45.28,45.28,0,0,0-9.44-.81q-8.82-.17-17.61.47a210.41,210.41,0,0,0-36,5.71c-5.81,1.46-11.76,3-17.22,5.51a19.68,19.68,0,0,0-7.63,6.44c-2.18,3-2.9,6.63-3.28,10.25a57.05,57.05,0,0,0,0,9.15c.21,3.84.66,7.65,1.18,11.46a121.07,121.07,0,0,0,4.3,19.38c1.26,4.07,5.75,7.08,10,5.69,4.09-1.32,7-5.66,5.69-10Z" transform="translate(-449.79 -352.46)"/><path class="cls-14" d="M1194.3,1605.31c7-2.93,14.22-5.57,21.8-6.64l-2.17.29a43.76,43.76,0,0,1,11.26-.1l-2.17-.29a35.91,35.91,0,0,1,8.81,2.38l-1.94-.82a30.08,30.08,0,0,1,6.17,3.56l-1.65-1.28a25.9,25.9,0,0,1,4.51,4.49l-1.28-1.65a21.09,21.09,0,0,1,2.53,4.36l-.83-1.95a22.87,22.87,0,0,1,1.52,5.67c-.1-.72-.2-1.44-.29-2.16a26.26,26.26,0,0,1,0,6.51c.1-.72.19-1.44.29-2.17a27.62,27.62,0,0,1-1.89,6.92c.28-.65.55-1.3.82-2a26.8,26.8,0,0,1-3.27,5.66l1.27-1.65a24,24,0,0,1-4.13,4.18l1.65-1.27a21.39,21.39,0,0,1-4.57,2.68l2-.82A26.74,26.74,0,0,1,1226,1631l2.17-.29c-3.24.41-6.5.46-9.75.59-3.83.16-7.6.69-11.4,1.2l2.17-.29a35.28,35.28,0,0,1-9.12.32l2.17.29a17.31,17.31,0,0,1-4.11-1.14l1.95.82a15.85,15.85,0,0,1-3.32-2l1.65,1.28a17.83,17.83,0,0,1-2.87-2.89l1.27,1.65a24.46,24.46,0,0,1-3-5.23c.28.65.55,1.3.82,2a43.52,43.52,0,0,1-2.71-10.71c.1.72.2,1.44.29,2.17a48,48,0,0,1-.5-12c-.09.72-.19,1.45-.29,2.17a15.37,15.37,0,0,1,.88-3.34c-.28.65-.55,1.3-.82,2a9.72,9.72,0,0,1,1.12-2l-1.28,1.65a6,6,0,0,1,.91-.91l-1.65,1.27a5.27,5.27,0,0,1,.83-.48l-1.94.83a3.9,3.9,0,0,1,.69-.19l-2.17.29a6.09,6.09,0,0,1,.74,0l-2.17-.29a5.42,5.42,0,0,1,.8.17c4.09,1.2,9.06-1.45,10-5.69a8.33,8.33,0,0,0-5.7-10,11.59,11.59,0,0,0-11.55,3.11,17.64,17.64,0,0,0-4.28,8.42c-1,4.82-.6,9.88,0,14.72,1.31,10.45,4.64,21.71,14.37,27.35a25.46,25.46,0,0,0,11.18,3.2c4.08.29,8.21-.52,12.24-1.06l-2.17.29c10.31-1.36,21.55.29,30.69-5.73a33.14,33.14,0,0,0,14-20.51c1.75-8.18.88-17.45-4.11-24.41a33.85,33.85,0,0,0-11.75-10.4,44.3,44.3,0,0,0-15.52-4.59c-12-1.45-24,2.53-34.84,7.08-2.06.86-3.71,1.75-4.88,3.75a8.35,8.35,0,0,0-.82,6.28,8.26,8.26,0,0,0,3.75,4.87c1.8,1,4.31,1.64,6.28.82Z" transform="translate(-449.79 -352.46)"/><path class="cls-14" d="M1145.41,566.23q1,39,3.61,77.85,2.64,38.68,7,77.23,4.41,39.44,10.53,78.66,6,38.5,13.67,76.72t17,76.06q1.15,4.63,2.32,9.26c1,4.14,5.9,7,10,5.7a8.33,8.33,0,0,0,5.7-10q-9.49-37.6-17.34-75.59t-14-76.27q-3.09-19-5.76-38.15c-.23-1.64-.45-3.28-.68-4.92-.1-.76-.2-1.52-.31-2.27l-.15-1.14c-.18-1.32.16,1.21,0-.11-.42-3.15-.84-6.31-1.24-9.47q-1.25-9.66-2.38-19.34-4.52-38.5-7.35-77.2t-4-77.45c-.1-3.18-.18-6.36-.26-9.54-.1-4.26-3.67-8.36-8.15-8.16-4.33.2-8.26,3.59-8.15,8.16Z" transform="translate(-449.79 -352.46)"/><path class="cls-14" d="M1339.34,595.62q11.73,33.74,22,68,10.15,34.06,18.81,68.56,8.69,34.65,15.81,69.66,7.1,34.84,12.64,70,1.39,8.9,2.7,17.82.65,4.38,1.26,8.76c.19,1.35.37,2.69.56,4,.11.79.22,1.57.32,2.36,0,.34.09.67.14,1s.22,1.66.08.6.13,1,.17,1.28c.11.79.21,1.57.32,2.36l.57,4.39c.37,2.92.74,5.85,1.1,8.77q1.11,9,2.1,17.91.49,4.39,1,8.79a8.79,8.79,0,0,0,2.39,5.77A8.24,8.24,0,0,0,1427,958c4-.18,8.63-3.61,8.15-8.15q-3.86-36.27-9.31-72.34-5.36-35.49-12.32-70.71-6.91-35-15.39-69.76t-18.5-69q-10.06-34.44-21.68-68.42c-1-2.79-1.92-5.58-2.88-8.36-1.4-4-5.65-7.11-10-5.7-4,1.29-7.19,5.72-5.69,10Z" transform="translate(-449.79 -352.46)"/><path class="cls-14" d="M1487.77,584.72a744.64,744.64,0,0,1,40.61,65.61,760.37,760.37,0,0,1,33.67,69.43c.59,1.4,0,.08-.07-.17l.5,1.19c.29.69.57,1.38.86,2.08q.93,2.22,1.84,4.46,1.82,4.47,3.58,9,3.54,9,6.84,18.05,6.6,18.13,12.27,36.59a758.43,758.43,0,0,1,18.92,74.82q3.76,18.91,6.56,38c.23,1.59.46,3.18.68,4.77.11.74.21,1.49.31,2.23.06.4.24,1.6,0-.25.06.42.11.85.17,1.27q.63,4.79,1.2,9.58,1.14,9.58,2,19.19c.3,3.2.57,6.41.83,9.61.34,4.24,3.51,8.36,8.15,8.16,4.13-.19,8.51-3.6,8.15-8.16a770.9,770.9,0,0,0-10.39-78.66,761.32,761.32,0,0,0-43.67-148.82,781.2,781.2,0,0,0-33.43-71.53,745.11,745.11,0,0,0-40-66.7q-2.7-4-5.45-8c-2.42-3.5-7.26-5.44-11.15-2.92-3.48,2.24-5.52,7.4-2.93,11.15Z" transform="translate(-449.79 -352.46)"/><path class="cls-14" d="M1139.27,561.64q-22.17,40.73-40.94,83.2-19,43-34.47,87.48-15.19,43.83-26.78,88.79t-19.4,90.68q-7.93,46.38-12.06,93.32c-.33,3.78-.63,7.57-.93,11.36-.33,4.26,4,8.33,8.15,8.15,4.7-.21,7.8-3.59,8.15-8.15q1.78-22.92,4.48-45.75.69-5.87,1.45-11.71c.11-.81.21-1.62.32-2.42l.21-1.62s.19-1.37.07-.53.11-.73.13-.93c.06-.4.11-.8.17-1.21.15-1.07.29-2.15.45-3.22q1.57-11.28,3.4-22.53,7.36-45.59,18.45-90.46,11-44.62,25.65-88.27,7.31-21.78,15.5-43.27,4.14-10.83,8.49-21.58,2.13-5.28,4.33-10.54l1.1-2.63s.52-1.24.22-.52l.38-.9c.79-1.87,1.59-3.75,2.39-5.61q18.18-42.24,39.77-82.87,2.67-5,5.4-10c2-3.75,1.05-9.06-2.92-11.15-3.81-2-9-1.08-11.16,2.92Z" transform="translate(-449.79 -352.46)"/><path class="cls-14" d="M966.78,590.3c-13.95,25.32-25.78,51.77-36.48,78.61-11.56,29-21.67,58.53-30.74,88.38Q885.7,802.91,875,849.4c-6.72,29.14-12.56,58.48-17.28,88-4.17,26.09-7.58,52.35-9.39,78.72-.19,2.77-.36,5.53-.52,8.3-.23,4.27,3.92,8.34,8.16,8.15a8.33,8.33,0,0,0,8.15-8.15c.64-11.81,1.66-23.6,2.92-35.36q1.05-9.77,2.33-19.5c.09-.74.19-1.48.29-2.22.05-.37.09-.75.15-1.12-.33,2.07-.13.95-.07.49.25-1.78.49-3.57.74-5.35.48-3.34,1-6.68,1.47-10,4.39-29.1,9.92-58,16.32-86.77q10.29-46.24,23.64-91.73c8.8-29.91,18.62-59.54,29.81-88.65q4-10.49,8.31-20.87,1-2.45,2-4.89c.11-.25.64-1.49.2-.45-.52,1.21.28-.67.31-.74.4-1,.81-1.89,1.21-2.84q2.12-4.92,4.3-9.8c5.65-12.68,11.65-25.2,18.13-37.48q2.28-4.32,4.63-8.6c2.06-3.73,1-9.06-2.92-11.15s-9-1.06-11.15,2.92Z" transform="translate(-449.79 -352.46)"/><path class="cls-14" d="M604.93,1103.2c-1.6-84.55,7-169.33,28.53-251.2,20.55-78,52.95-152.84,98.2-219.73A586.52,586.52,0,0,1,873.2,485.61a613,613,0,0,1,174.13-87.49,630.24,630.24,0,0,1,191.84-29.36,608.41,608.41,0,0,1,192.23,31.62,574.63,574.63,0,0,1,175,95.37c54.38,43.53,98.77,97.07,134.76,156.55,39.43,65.15,69.12,136.14,89.18,209.56,20.18,73.85,30.71,150.71,27.45,227.33q-1.17,27.29-4.79,54.37c-.59,4.4,4.17,8.11,8.15,8.15,4.89,0,7.57-3.8,8.15-8.15,10.31-76.91,5.12-155.41-10.22-231.29a856.43,856.43,0,0,0-78-222c-32.84-63.71-74.29-124.3-126.32-173.93a585.63,585.63,0,0,0-172.39-113.7,619.19,619.19,0,0,0-195.18-48.14,643.14,643.14,0,0,0-197.89,15.21A634.32,634.32,0,0,0,904.57,445.2,600.77,600.77,0,0,0,751.68,578.12c-50.79,62.36-89.19,134.15-115.72,210-28.15,80.42-42.8,165.34-46.56,250.35q-1.44,32.37-.77,64.77c.2,10.48,16.5,10.52,16.3,0Z" transform="translate(-449.79 -352.46)"/><path class="cls-14" d="M1029.3,1700.91a55.19,55.19,0,0,1,5.74-9.26l-1.28,1.65a53.61,53.61,0,0,1,9.5-9.48l-1.65,1.28a57.59,57.59,0,0,1,12.5-7.26l-1.95.82a67.43,67.43,0,0,1,17-4.59l-2.16.29a77.28,77.28,0,0,1,20.27,0l-2.16-.29a79.09,79.09,0,0,1,20.14,5.47l-2-.82a71.17,71.17,0,0,1,15.59,9l-1.65-1.27a60.33,60.33,0,0,1,10.82,10.78l-1.27-1.65a54.7,54.7,0,0,1,7,12l-.82-2a66,66,0,0,1,4.18,16.55c-.1-.72-.19-1.45-.29-2.17a77.11,77.11,0,0,1,.16,20.36c.1-.72.19-1.45.29-2.17a59.05,59.05,0,0,1-4,14.88l.82-2a53.44,53.44,0,0,1-6.93,11.87l1.28-1.65a56.63,56.63,0,0,1-10.09,10l1.65-1.27a65.87,65.87,0,0,1-14.5,8.38l2-.82a80.76,80.76,0,0,1-20.7,5.55l2.16-.29a91.09,91.09,0,0,1-18.82.53c-1.76-.13-3.52-.32-5.28-.55l2.17.29a84.84,84.84,0,0,1-21.63-5.81l1.94.82a68.69,68.69,0,0,1-15.08-8.72l1.65,1.27a54.92,54.92,0,0,1-9.76-9.69l1.28,1.65a48.32,48.32,0,0,1-6.21-10.56l.83,2a47.94,47.94,0,0,1-3.35-12.33c.09.72.19,1.45.29,2.17a57.15,57.15,0,0,1,.07-14.84c-.09.72-.19,1.44-.29,2.16a79.74,79.74,0,0,1,5.37-19.4c.75-1.82.13-4.66-.82-6.28a8.35,8.35,0,0,0-4.87-3.75,8.24,8.24,0,0,0-6.28.83,9.54,9.54,0,0,0-3.75,4.87c-5.46,13.36-7.84,28.12-4.78,42.37a56.41,56.41,0,0,0,18.06,30.17,79.74,79.74,0,0,0,32.48,16.78,96.92,96.92,0,0,0,36.6,2.4c12.55-1.63,24.9-5.32,35.57-12.29a65.7,65.7,0,0,0,13.92-11.94,65,65,0,0,0,10.84-17.77c5.72-13.81,5.73-29.25,3.09-43.75a61,61,0,0,0-10.1-24.51,71.44,71.44,0,0,0-20.34-19.08,84.63,84.63,0,0,0-51.16-12.3c-18,1.52-35.95,8.81-47.54,23.09a62.94,62.94,0,0,0-7.81,11.92,8.64,8.64,0,0,0-.82,6.28,8.31,8.31,0,0,0,3.74,4.87c3.67,1.94,9.15,1.17,11.15-2.92Z" transform="translate(-449.79 -352.46)"/><path class="cls-15" d="M939.8,1261q3.33-5.1,7.06-9.94l-1.27,1.65a151.28,151.28,0,0,1,22.64-23.45,8.16,8.16,0,0,0-5.77-13.92,9.21,9.21,0,0,0-5.76,2.39,158,158,0,0,0-31,35c-2.34,3.57-.84,9.16,2.92,11.15A8.33,8.33,0,0,0,939.8,1261Z" transform="translate(-449.79 -352.46)"/><path class="cls-15" d="M996,1248.9a79.32,79.32,0,0,0,17.73-23.59,8.74,8.74,0,0,0,.82-6.28,8.32,8.32,0,0,0-3.75-4.87,8.21,8.21,0,0,0-6.28-.82,8.05,8.05,0,0,0-4.87,3.74,73.61,73.61,0,0,1-7.86,12.65l1.28-1.65a74.15,74.15,0,0,1-8.6,9.29,8.22,8.22,0,0,0,0,11.53,8.34,8.34,0,0,0,11.53,0Z" transform="translate(-449.79 -352.46)"/><path class="cls-15" d="M1531.68,1244.5a77.27,77.27,0,0,0,25.15-30.09,8.85,8.85,0,0,0,.82-6.28,8.16,8.16,0,0,0-10-5.69c-1.9.61-4,1.85-4.87,3.74a70.08,70.08,0,0,1-8.2,13.59l1.27-1.65a70.31,70.31,0,0,1-12.38,12.36l1.65-1.28-1.64,1.22a8.79,8.79,0,0,0-3.74,4.87,8.16,8.16,0,0,0,5.69,10c2,.46,4.53.44,6.28-.82Z" transform="translate(-449.79 -352.46)"/><path class="cls-15" d="M1591.21,1232.57l16.82-21.66c1.39-1.78,2.39-3.4,2.39-5.76a8.27,8.27,0,0,0-2.39-5.76,8.16,8.16,0,0,0-5.76-2.39c-2,.09-4.48.73-5.77,2.39L1579.68,1221c-1.38,1.79-2.38,3.4-2.38,5.76a8.13,8.13,0,0,0,8.15,8.15c2-.09,4.47-.72,5.76-2.38Z" transform="translate(-449.79 -352.46)"/><path class="cls-14" d="M915.08,1904.84a257.86,257.86,0,0,0-33.59,35.07,270,270,0,0,0-27.51,42,274.72,274.72,0,0,0-12.09,26.49c-.74,1.84-.14,4.65.82,6.28a8.15,8.15,0,0,0,11.15,2.93,9.48,9.48,0,0,0,3.75-4.87q1-2.52,2-5l-.82,2a258.29,258.29,0,0,1,25-45.69q4.19-6.07,8.69-11.92l-1.27,1.65a258.4,258.4,0,0,1,35.38-37.36c3.24-2.8,3.08-8.7,0-11.53-3.45-3.16-8.07-3-11.53,0Z" transform="translate(-449.79 -352.46)"/><path class="cls-14" d="M1452.82,1852.27a338.1,338.1,0,0,1,28.94,31.71q4.34,5.31,8.51,10.73l-1.27-1.65c12.52,16.22,24.19,33.09,35.15,50.4s21.33,35.3,30.65,53.68c4.81,9.5,9.35,19.13,13.5,28.94l-.83-1.95a276.46,276.46,0,0,1,10.62,29.23c1.21,4.09,5.79,7.06,10,5.69s7-5.64,5.69-10a317.34,317.34,0,0,0-16-41.65c-6.86-15.06-14.53-29.74-22.71-44.12q-12.91-22.7-27.5-44.37t-30.68-42a366.87,366.87,0,0,0-29.08-32.84c-1.14-1.12-2.29-2.24-3.45-3.34-3.1-2.94-8.5-3.3-11.53,0s-3.3,8.39,0,11.53Z" transform="translate(-449.79 -352.46)"/><path class="cls-14" d="M829.19,1203.54a396.44,396.44,0,0,0-39,44.21,387.81,387.81,0,0,0-34.77,53.78c-10.23,19.29-18.86,39.69-24.25,60.88-5.12,20.16-7.34,41.2-4.56,61.88a117,117,0,0,0,7.5,28.92A122.84,122.84,0,0,0,750.85,1482q2.45,3.14,5.08,6.11c2.83,3.21,8.67,3.11,11.52,0a8.33,8.33,0,0,0,0-11.52c-1.05-1.19-2.08-2.39-3.09-3.62l-1.41-1.76c-1-1.32.88,1.16.36.47l-.67-.89q-2.7-3.58-5.1-7.39a108.23,108.23,0,0,1-8-15.39c.28.65.55,1.3.82,2a113.63,113.63,0,0,1-7.82-29c.09.72.19,1.44.29,2.17a142.82,142.82,0,0,1,.28-37.52c-.09.72-.19,1.44-.29,2.16a207.36,207.36,0,0,1,11-43.28q2.22-6.08,4.75-12c-.27.65-.55,1.3-.82,1.94a339.41,339.41,0,0,1,28.89-53.58q8.16-12.48,17.21-24.31l1.12-1.47c-1.75,2.3-.33.43.08-.09.74-1,1.5-1.92,2.25-2.87q2.25-2.84,4.54-5.62,4.36-5.31,8.89-10.45c6.39-7.26,13-14.29,20-21,3.08-3,3.21-8.58,0-11.52a8.3,8.3,0,0,0-11.52,0Z" transform="translate(-449.79 -352.46)"/><path class="cls-14" d="M1659,1175.44c15.17,22.85,30.36,45.79,42.87,70.23q5.27,10.29,9.8,20.92l-.83-1.94a225.54,225.54,0,0,1,13.64,43q1.2,6,2,12.06c-.1-.72-.2-1.45-.29-2.17a169.2,169.2,0,0,1,.27,44.51c.09-.73.19-1.45.29-2.17a134.06,134.06,0,0,1-9,33.87l.82-1.94a117.33,117.33,0,0,1-10.83,20c-2.4,3.54-.8,9.18,2.92,11.15a8.34,8.34,0,0,0,11.15-2.93,128.48,128.48,0,0,0,19.15-46.54,168.32,168.32,0,0,0,2.16-51.12,212.11,212.11,0,0,0-12.4-51.72,346.9,346.9,0,0,0-24.33-50.86c-9.22-16.06-19.35-31.58-29.57-47l-3.73-5.64a8.66,8.66,0,0,0-4.88-3.74,8.3,8.3,0,0,0-6.28.82c-3.53,2.28-5.44,7.35-2.92,11.15Z" transform="translate(-449.79 -352.46)"/><path class="cls-14" d="M1653.4,1076.1q-.95,38.82-1.88,77.63-.27,10.93-.53,21.89c-.1,4.27,3.82,8.34,8.15,8.15a8.3,8.3,0,0,0,8.15-8.15q.95-38.82,1.88-77.62.27-10.95.53-21.9c.1-4.26-3.82-8.34-8.15-8.15a8.31,8.31,0,0,0-8.15,8.15Z" transform="translate(-449.79 -352.46)"/><path class="cls-14" d="M1653.46,1205.93a209.94,209.94,0,0,1-.52,33q-.17,1.83-.39,3.66c-.07.65-.15,1.3-.23,2,0,.28-.08.56-.11.84-.13,1.05.26-1.77,0-.23-.4,2.56-.78,5.11-1.25,7.66q-1.4,7.49-3.4,14.83-1.93,7.07-4.45,14c-.85,2.31-1.8,4.57-2.69,6.87-.33.84.33-.77.32-.74l-.42,1c-.24.56-.48,1.12-.73,1.68-.5,1.11-1,2.22-1.52,3.33a179.42,179.42,0,0,1-14.5,25.29c-1.38,2-2.79,4-4.25,6l-.94,1.26c-.62.82-1.08,1.4-.15.22-.81,1-1.62,2.06-2.44,3.08q-4.56,5.65-9.51,11a232.17,232.17,0,0,1-22,20.59c-2,1.63-4,3.21-6,4.8,1.22-1,.42-.32-.32.24l-1.32,1c-1.11.84-2.23,1.66-3.35,2.48-4.23,3.08-8.56,6-12.95,8.9-9,5.81-18.23,11.14-27.71,16.07q-7.37,3.83-14.9,7.33c-2.55,1.19-5.1,2.35-7.67,3.48-1.29.57-2.59,1.14-3.89,1.69l-1.67.72.26-.11-1.12.47q-16,6.67-32.49,12.16a619,619,0,0,1-69.42,18.64q-18.18,3.83-36.53,6.73-9.24,1.48-18.52,2.74l-.49.07-2.32.31-5,.64q-4.5.55-9,1.07-37.23,4.24-74.73,5.49-36.27,1.24-72.58-.15c-22.68-.88-45.34-2.54-67.89-5.12q-7.86-.9-15.7-2c-4.37-.59-8.15,4.17-8.15,8.15,0,4.89,3.77,7.56,8.15,8.15,22.32,3,44.76,5,67.24,6.3q36.32,2,72.72,1.34,37.53-.67,74.92-4.23c25.57-2.45,51.07-5.93,76.32-10.66a660.48,660.48,0,0,0,71.14-17.27,492.75,492.75,0,0,0,66.53-25.47,329.2,329.2,0,0,0,55.91-33.06c16.67-12.4,32.09-26.47,45-42.81a187,187,0,0,0,41.34-116.72c.08-5.52-.06-11-.39-16.53-.26-4.4-3.56-8.16-8.15-8.16-4.21,0-8.41,3.74-8.15,8.16Z" transform="translate(-449.79 -352.46)"/><path class="cls-14" d="M836.38,1128.68v73.76c0,4.27,3.74,8.35,8.15,8.16a8.31,8.31,0,0,0,8.15-8.16v-73.76c0-4.26-3.75-8.34-8.15-8.15a8.29,8.29,0,0,0-8.15,8.15Z" transform="translate(-449.79 -352.46)"/><path class="cls-14" d="M836.84,1234.76a146.33,146.33,0,0,0-5.44,40.12,122.59,122.59,0,0,0,5.81,36.11,130.73,130.73,0,0,0,15.54,32.14,167.93,167.93,0,0,0,23.45,27.93,232.77,232.77,0,0,0,30.1,24.22,307.19,307.19,0,0,0,33,19.55c12.36,6.36,25.08,12,38,17.15,12.37,4.93,25,9.34,37.67,13.3q18.63,5.81,37.61,10.39,17.87,4.32,36,7.62c2.77.51,5.55,1,8.32,1.46a8.79,8.79,0,0,0,6.28-.82,8.15,8.15,0,0,0,2.93-11.15c-1.08-1.68-2.82-3.4-4.87-3.75q-24.48-4.11-48.59-10.14c-17.21-4.3-34.25-9.32-51-15.17q-14.45-5.06-28.56-11l1.94.82c-10.14-4.29-20.14-8.94-29.9-14.06a308,308,0,0,1-27.7-16.34q-7.33-4.87-14.33-10.26l1.65,1.27a193,193,0,0,1-26.93-25q-3.33-3.78-6.4-7.76l1.27,1.65a132.15,132.15,0,0,1-17-28.84l.83,2a115,115,0,0,1-8.05-29.4c.09.72.19,1.45.29,2.17a123.7,123.7,0,0,1,.14-32.62c-.1.73-.19,1.45-.29,2.17a151,151,0,0,1,4-19.42c1.13-4.11-1.39-9-5.69-10a8.31,8.31,0,0,0-10,5.69Z" transform="translate(-449.79 -352.46)"/><path class="cls-14" d="M1684.67,1061.3a56.76,56.76,0,0,1,5.57-2.79l-1.94.83a54.56,54.56,0,0,1,14-3.79l-2.17.29a63.4,63.4,0,0,1,16.4.06l-2.17-.29a71.66,71.66,0,0,1,17.84,4.9l-2-.82a72.53,72.53,0,0,1,16,9.36l-1.65-1.27a78.49,78.49,0,0,1,13.57,13.75l-1.28-1.65a96.31,96.31,0,0,1,12.21,21.1c-.27-.64-.54-1.29-.82-1.94a124.34,124.34,0,0,1,8.43,31.54c-.09-.73-.19-1.45-.29-2.17a150.82,150.82,0,0,1-.08,39.82c.1-.72.2-1.44.29-2.16a148,148,0,0,1-10.2,37.56c.28-.65.55-1.3.82-1.94a134.84,134.84,0,0,1-17.23,29.64l1.28-1.65a126.55,126.55,0,0,1-22.49,22.47l1.65-1.28a125.77,125.77,0,0,1-27.69,16.2l2-.82a117.25,117.25,0,0,1-29.68,8.15l2.16-.3a108.9,108.9,0,0,1-11.7.91c-4.26.11-8.35,3.68-8.15,8.15s3.59,8.27,8.15,8.16a125.9,125.9,0,0,0,71.31-25,138.44,138.44,0,0,0,28.3-28.13,142.5,142.5,0,0,0,19.12-35.47,157.52,157.52,0,0,0,7.8-79.3,124.47,124.47,0,0,0-11.67-36.82c-5.7-11.33-13.68-22-23.65-29.94a79.81,79.81,0,0,0-34-16.15c-12.22-2.4-25.29-2.14-37,2.37a66.46,66.46,0,0,0-9.21,4.3c-3.69,2.13-5.3,7.47-2.92,11.15a8.3,8.3,0,0,0,11.15,2.92Z" transform="translate(-449.79 -352.46)"/><path class="cls-14" d="M844.78,1127c-8-12.43-20.94-20.61-35.3-23.61a78.58,78.58,0,0,0-43.08,3.24,94,94,0,0,0-36.3,24.65,104.85,104.85,0,0,0-21.42,36.64,123.33,123.33,0,0,0-6.39,40.92,138.54,138.54,0,0,0,6.78,41.63,134,134,0,0,0,20,38.94,140.16,140.16,0,0,0,31.45,30.43,154.67,154.67,0,0,0,37.8,19.13,182.57,182.57,0,0,0,42.68,9.16q5.21.51,10.43.74a8.2,8.2,0,0,0,8.15-8.15,8.32,8.32,0,0,0-8.15-8.15c-5.65-.25-11.3-.75-16.91-1.5l2.17.29a172.1,172.1,0,0,1-33.88-8.06q-4.59-1.61-9.07-3.49l1.95.82A143.39,143.39,0,0,1,764,1302.3l1.65,1.27a127.69,127.69,0,0,1-22.78-22.68l1.27,1.65a126.39,126.39,0,0,1-16.4-28.14c.27.64.54,1.29.82,1.94a132.91,132.91,0,0,1-9.12-33.45c.1.72.19,1.44.29,2.16a127.19,127.19,0,0,1-.09-33.59c-.09.72-.19,1.44-.29,2.16a110.24,110.24,0,0,1,7.46-27.74l-.82,1.95a95.24,95.24,0,0,1,12.36-21.28l-1.28,1.65A89.79,89.79,0,0,1,753,1132.34l-1.65,1.28a85.63,85.63,0,0,1,18.54-11l-1.94.82a73.84,73.84,0,0,1,18.64-5l-2.17.29a71.11,71.11,0,0,1,18.55,0l-2.17-.3a59,59,0,0,1,14.59,3.92l-1.95-.82a48.09,48.09,0,0,1,10.33,6l-1.65-1.28a43.56,43.56,0,0,1,7.61,7.56l-1.28-1.65c.79,1,1.54,2.09,2.24,3.18,2.3,3.59,7.35,5.38,11.15,2.93,3.59-2.32,5.38-7.31,2.93-11.16Z" transform="translate(-449.79 -352.46)"/><path class="cls-14" d="M763.54,1201.93q4.47,4.88,8.52,10.13l-1.27-1.65A158.1,158.1,0,0,1,791,1245c-.27-.64-.55-1.29-.82-1.94q2.9,6.89,5.15,14c1.27,4.06,5.73,7.08,10,5.69,4.08-1.32,7.06-5.67,5.69-10a162.83,162.83,0,0,0-25.1-49.21c-3.42-4.54-7-9-10.83-13.14a8.21,8.21,0,0,0-11.53,0,8.33,8.33,0,0,0,0,11.53Z" transform="translate(-449.79 -352.46)"/><path class="cls-14" d="M766.46,1245.25l26.82-11.8c1.75-.77,3.27-3.12,3.75-4.87a8.16,8.16,0,0,0-5.69-10,9.47,9.47,0,0,0-6.29.82l-26.82,11.8c-1.75.77-3.26,3.12-3.75,4.87a8.35,8.35,0,0,0,.83,6.28,8.21,8.21,0,0,0,4.87,3.75,9.45,9.45,0,0,0,6.28-.82Z" transform="translate(-449.79 -352.46)"/><path class="cls-14" d="M1700,1200.54a149.27,149.27,0,0,1,17.72-29.42l-1.28,1.65a149.72,149.72,0,0,1,26.56-26.62l-1.65,1.27q1.79-1.38,3.61-2.7a8.87,8.87,0,0,0,3.74-4.87,8.3,8.3,0,0,0-.82-6.28,8.21,8.21,0,0,0-4.87-3.75c-2-.46-4.54-.45-6.28.82a159.26,159.26,0,0,0-42.81,46.45,150,150,0,0,0-8,15.22,8.85,8.85,0,0,0-.82,6.28,8.31,8.31,0,0,0,3.75,4.88,8.21,8.21,0,0,0,6.28.82c1.9-.62,4-1.85,4.87-3.75Z" transform="translate(-449.79 -352.46)"/><path class="cls-14" d="M1711.91,1175.67l1.81.73-1.94-.82a60.72,60.72,0,0,1,13.41,7.85l-1.64-1.27a61.74,61.74,0,0,1,10.72,10.71l-1.27-1.65a60.48,60.48,0,0,1,4.15,6.13c2.18,3.66,7.44,5.32,11.16,2.92a8.29,8.29,0,0,0,2.92-11.15,66.93,66.93,0,0,0-14.34-17,71.83,71.83,0,0,0-20.64-12.15,8.16,8.16,0,0,0-9.21,12,9.36,9.36,0,0,0,4.87,3.74Z" transform="translate(-449.79 -352.46)"/><path class="cls-14" d="M876.75,1023.76a144.31,144.31,0,0,0-54.06,31.08,135.45,135.45,0,0,0-11.6,12,8.67,8.67,0,0,0-2.39,5.77,8.31,8.31,0,0,0,2.39,5.76c3,2.79,8.57,3.46,11.53,0a134.79,134.79,0,0,1,20-19.07l-1.65,1.28a136.43,136.43,0,0,1,29.81-17.44l-1.95.82q6-2.54,12.24-4.48c4.06-1.27,7.08-5.74,5.69-10-1.32-4.08-5.67-7.05-10-5.69Z" transform="translate(-449.79 -352.46)"/><path class="cls-14" d="M857.41,1072.26,819.69,1093c-3.74,2.06-5.27,7.52-2.92,11.15a8.31,8.31,0,0,0,11.15,2.93l37.72-20.73c3.74-2,5.27-7.52,2.92-11.15a8.31,8.31,0,0,0-11.15-2.92Z" transform="translate(-449.79 -352.46)"/><path class="cls-14" d="M1629.68,961a208.25,208.25,0,0,0,52.67,42.4q8.09,4.56,16.57,8.36a8.84,8.84,0,0,0,6.28.83,8.36,8.36,0,0,0,4.87-3.75,8.21,8.21,0,0,0,.82-6.28c-.61-1.9-1.85-4-3.75-4.87a202.39,202.39,0,0,1-40.45-24.22l1.65,1.27a200.93,200.93,0,0,1-27.13-25.27c-2.85-3.19-8.67-3.12-11.53,0a8.34,8.34,0,0,0,0,11.53Z" transform="translate(-449.79 -352.46)"/><path class="cls-14" d="M1632.48,1009.69a128.18,128.18,0,0,0,35.2,27.64c4.13,2.2,8.4,4.1,12.73,5.88,1.82.75,4.67.13,6.28-.82a8.15,8.15,0,0,0,2.93-11.15,9.67,9.67,0,0,0-4.87-3.75l-1.16-.48,1.94.82a122.08,122.08,0,0,1-26.66-15.56l1.65,1.27A122.58,122.58,0,0,1,1644,998.17c-2.85-3.2-8.67-3.12-11.53,0a8.35,8.35,0,0,0,0,11.52Z" transform="translate(-449.79 -352.46)"/><path class="cls-14" d="M590.86,1124.28c-9.3,73-7,146.91-15.36,220-7,61.2-22.6,123.45-57.4,175.1-16.57,24.6-39.64,44.27-55,69.66-7.5,12.38-12.56,26.2-13.2,40.74-.68,15.13,3.85,30,10.92,43.22,15.29,28.61,41.27,50.66,64.13,73l40.31,39.45c10.9,10.67,21.76,21.43,31.6,33.11,17.25,20.45,32.95,46.46,30.38,74.11-2,21.06-15.48,45-36.14,51.57a37.34,37.34,0,0,1-16,1.48c-4.39-.45-8.15,4.06-8.15,8.15,0,4.77,3.75,7.7,8.15,8.15,26.12,2.63,48.68-15.66,59.65-38.13a86.48,86.48,0,0,0,9.07-38.79c-.19-14.6-4.79-28.93-11.09-42-13.75-28.43-37.27-50.9-59.53-72.69l-40.9-40c-12.14-11.89-24.61-23.54-36-36.17-18.86-21-36.18-47.77-28.07-77.11,7.7-27.82,31.65-48,49.21-69.71,40.71-50.22,61-113.17,70.77-176.31,11.19-72.64,9.17-146.38,15.94-219.42q1.27-13.76,3-27.46c.56-4.37-4.14-8.15-8.15-8.15-4.87,0-7.59,3.77-8.15,8.15Z" transform="translate(-449.79 -352.46)"/><path class="cls-14" d="M1853.87,1165.46c-.15,61,2,124.81,29,180.81,12.41,25.74,30.68,48.46,47.82,71.16s34.24,45.27,48.36,69.88c13.54,23.6,24.33,49.46,27.3,76.72,1.38,12.64,1,24.15-2.83,35.92a61.83,61.83,0,0,1-5.73,12.94,118.35,118.35,0,0,1-8.19,12.5c-2.41,3.25-5.51,7-8.82,11s-6.7,8.06-9.92,12.19c-6.88,8.82-13.24,18-17.84,28.23-2.93,6.53-5.44,13-6.06,20.23a46.08,46.08,0,0,0,2.94,19.58c5,13.63,14,25.08,22.63,36.6,7.54,10.06,14.77,20.5,18.66,32a92.71,92.71,0,0,1,4.79,35.11c-1,22.59-10,45.77-25.88,62.39a82.71,82.71,0,0,1-12.76,11c-3.62,2.5-5.26,7.15-2.92,11.15,2.09,3.59,7.51,5.44,11.15,2.93,43.06-29.72,58.56-90,37.15-137.4-5.6-12.41-14.37-22.93-22.39-33.82-7.35-10-16.45-22.2-17.14-34.5-.63-11.12,5.57-21.74,11.58-31.16,5.84-9.16,11.52-15.72,18.57-24.27,6.7-8.12,13.37-16.39,18.53-25.6a89.94,89.94,0,0,0,10.8-33.16c3.48-28.23-5.24-57.8-16.55-83.38-23.16-52.37-63.44-94.3-94.83-141.54-34.26-51.55-40.25-114.26-41-174.62-.1-7.65-.11-15.3-.1-23,0-10.49-16.27-10.5-16.3,0Z" transform="translate(-449.79 -352.46)"/><path class="cls-14" d="M588.92,1115l64.58,13.55,18.1,3.8a8.69,8.69,0,0,0,6.28-.82,8.3,8.3,0,0,0,3.74-4.87c.93-4.09-1.23-9.09-5.69-10l-64.57-13.55-18.1-3.8a8.71,8.71,0,0,0-6.29.82,8.3,8.3,0,0,0-3.74,4.87c-.93,4.09,1.23,9.09,5.69,10Z" transform="translate(-449.79 -352.46)"/><path class="cls-14" d="M594.26,1149.17l53.87,7.8,15.32,2.21c2.26.33,4.22.39,6.28-.82a8.16,8.16,0,0,0,2.92-11.15c-1.07-1.65-2.83-3.45-4.87-3.74l-53.86-7.8-15.32-2.22c-2.26-.33-4.23-.38-6.28.82a8.15,8.15,0,0,0-2.93,11.15c1.07,1.66,2.83,3.45,4.87,3.75Z" transform="translate(-449.79 -352.46)"/><path class="cls-14" d="M1813.71,1143.44a204,204,0,0,0,51.44-18c3.82-1.92,5.21-7.61,2.93-11.15a8.34,8.34,0,0,0-11.15-2.92q-6,3-12.13,5.62l2-.82a197.57,197.57,0,0,1-37.37,11.54c-4.19.84-7,6-5.69,10a8.36,8.36,0,0,0,10,5.7Z" transform="translate(-449.79 -352.46)"/><path class="cls-14" d="M1822,1168.08l52.62-16c4.08-1.24,7.08-5.76,5.69-10-1.33-4.11-5.65-7-10-5.69l-52.63,16c-4.07,1.24-7.07,5.76-5.69,10,1.33,4.11,5.66,7,10,5.69Z" transform="translate(-449.79 -352.46)"/><path class="cls-14" d="M957.85,868a312.86,312.86,0,0,0-11.79,46.49,329,329,0,0,0-4.79,49.21q-.27,13.53.65,27a8.63,8.63,0,0,0,2.39,5.76,8.25,8.25,0,0,0,5.76,2.39c4.17-.19,8.46-3.59,8.15-8.15a311.24,311.24,0,0,1,.53-48.66q.62-6.92,1.54-13.8c-.1.72-.19,1.44-.29,2.17a313.1,313.1,0,0,1,13.57-58.12c1.36-4-1.57-9.09-5.7-10a8.33,8.33,0,0,0-10,5.69Z" transform="translate(-449.79 -352.46)"/><path class="cls-14" d="M1284.12,876.33l15.81,60.5,4.47,17.11c1.08,4.13,5.88,7,10,5.7a8.31,8.31,0,0,0,5.69-10l-15.81-60.5L1299.83,872c-1.07-4.12-5.87-7-10-5.69a8.31,8.31,0,0,0-5.69,10Z" transform="translate(-449.79 -352.46)"/><path class="cls-14" d="M1534.29,878.24q6,11.71,11.09,23.84c-.28-.65-.55-1.3-.82-2a367.8,367.8,0,0,1,13.59,38c1.22,4.08,5.78,7.06,10,5.69s7-5.65,5.69-10a380.84,380.84,0,0,0-19-50.47q-3.09-6.72-6.45-13.31c-1.94-3.8-7.6-5.21-11.15-2.92a8.34,8.34,0,0,0-2.93,11.15Z" transform="translate(-449.79 -352.46)"/><path class="cls-14" d="M1154.4,1489.79a134.74,134.74,0,0,0,79.45,44.46,134.58,134.58,0,0,0,93.4-19.11,124.55,124.55,0,0,0,19.46-15.08c5.78-5.56,11.08-12.08,14.34-19.47a57.19,57.19,0,0,0,2.59-6.86c1.19-4.09-1.45-9.06-5.7-10a8.31,8.31,0,0,0-10,5.7,42.94,42.94,0,0,1-1.61,4.54c.27-.64.54-1.29.82-1.94a49.49,49.49,0,0,1-6.39,10.66L1342,1481a87,87,0,0,1-15.54,15l1.65-1.27a127,127,0,0,1-27.7,16.11l1.94-.82a129.94,129.94,0,0,1-32.9,9l2.17-.29a124.43,124.43,0,0,1-32.66,0l2.16.3a127.58,127.58,0,0,1-32.18-8.86l2,.82a129.44,129.44,0,0,1-28.47-16.67l1.65,1.27a124.74,124.74,0,0,1-18.17-17.27,8.22,8.22,0,0,0-5.76-2.38,8.31,8.31,0,0,0-5.76,2.38c-3.18,3.46-3,8.07,0,11.53Z" transform="translate(-449.79 -352.46)"/><path class="cls-14" d="M1117.76,1462.06c-2.31,9-1.24,18.77.47,27.77a92.62,92.62,0,0,0,9.71,27.69,44.37,44.37,0,0,0,7.86,10.54c4.13,3.91,9.36,6.75,14.55,9,12.29,5.29,25.51,7.34,38.83,7.74,15.25.45,30.91-1.26,44.54-8.55a8.22,8.22,0,0,0,2.93-11.15,8.33,8.33,0,0,0-11.15-2.92q-2.13,1.13-4.33,2.08l1.95-.83a67.79,67.79,0,0,1-17.25,4.55l2.17-.29a124.26,124.26,0,0,1-32.41-.27l2.16.3a83.73,83.73,0,0,1-21.16-5.56l1.94.82a53.08,53.08,0,0,1-11.34-6.36l1.65,1.27a26.6,26.6,0,0,1-4.52-4.66l1.28,1.65a55.74,55.74,0,0,1-6.81-12.15l.83,2a94.92,94.92,0,0,1-6.5-24c.09.72.19,1.44.29,2.16a58.47,58.47,0,0,1-.32-15.18l-.3,2.16a32.31,32.31,0,0,1,.65-3.37c1.06-4.13-1.35-9-5.69-10s-8.89,1.28-10,5.69Z" transform="translate(-449.79 -352.46)"/><path class="cls-14" d="M1263.56,1535.4c12.56,13.78,30.19,23.09,48.5,26.35a94,94,0,0,0,29.66.55,82.25,82.25,0,0,0,24.32-7.56,142.2,142.2,0,0,0,34.48-24.08c11-10.17,21-22.57,25.52-37a43.73,43.73,0,0,0,1.18-22.07c-1.63-7.77-6-14.84-11.43-20.54a53.62,53.62,0,0,0-4.41-4.12,8.76,8.76,0,0,0-5.77-2.39,8.29,8.29,0,0,0-5.76,2.39c-2.77,3-3.49,8.6,0,11.52a50.29,50.29,0,0,1,7.25,7.41l-1.28-1.65a36.4,36.4,0,0,1,4.72,8l-.82-2a31.79,31.79,0,0,1,2.16,7.94c-.1-.72-.19-1.44-.29-2.16a34.19,34.19,0,0,1,0,8.81c.1-.72.2-1.45.29-2.17a44.33,44.33,0,0,1-3.12,11.06l.82-2a70.78,70.78,0,0,1-9.33,15.53l1.28-1.65a125,125,0,0,1-22.41,21.92l1.65-1.27a122.32,122.32,0,0,1-26.42,16l1.94-.83a75.78,75.78,0,0,1-19.22,5.2l2.17-.3a82.19,82.19,0,0,1-21.37,0l2.17.3a85.15,85.15,0,0,1-21.36-5.8l1.95.82a80.3,80.3,0,0,1-17.53-10.17l1.65,1.28a75.25,75.25,0,0,1-9.61-8.85,8.22,8.22,0,0,0-11.53,0,8.34,8.34,0,0,0,0,11.53Z" transform="translate(-449.79 -352.46)"/><path class="cls-14" d="M1423.85,1494.8c1,0,2.09,0,3.14.14.22,0,.44.06.66.07,1,.07-1.87-.31-.84-.11.58.11,1.17.19,1.75.31a38.27,38.27,0,0,1,6.2,1.81c.21.08.42.18.63.25.83.26-1-.43-.9-.39.47.23,1,.42,1.44.65,1,.49,2,1,3,1.57a57.6,57.6,0,0,1,5.69,3.63c.45.32.89.65,1.33,1,1.14.83-1.48-1.19,0,0q1.4,1.13,2.76,2.31,2.55,2.25,4.94,4.67a130.18,130.18,0,0,1,9.33,10.58l1,1.32c.55.69-.58-.77-.54-.71.18.26.39.5.58.75q1.06,1.41,2.1,2.82c1.26,1.71,2.48,3.44,3.69,5.18,2.69,3.89,5.26,7.85,7.85,11.81,6.26,9.58,12.44,19.22,18.38,29s11.7,19.8,17,30c2.61,5,5.12,10.09,7.49,15.22,1.21,2.6,2.37,5.21,3.5,7.84.21.48.87,2.47.22.49.18.56.46,1.09.68,1.63q.9,2.17,1.76,4.37a229.28,229.28,0,0,1,10,31.55c1.27,5.41,2.28,10.87,3.09,16.37.22,1.51-.22-1.73,0,.39l.24,2c.15,1.33.29,2.66.41,4q.36,4.15.53,8.31a153.45,153.45,0,0,1-.28,16.75c-.2,2.72-.49,5.42-.81,8.12-.13,1.09.25-1.73.09-.64,0,.25-.07.51-.11.76l-.27,1.78c-.2,1.27-.43,2.53-.66,3.8a138,138,0,0,1-3.56,14.46c-.7,2.3-1.46,4.57-2.27,6.83-.41,1.13-.83,2.25-1.27,3.37-.22.56-.44,1.12-.67,1.67-.09.24-.19.48-.29.72-.66,1.64.55-1.25.13-.29a144.89,144.89,0,0,1-14.37,25.75c-.69,1-1.39,2-2.11,2.91l-.93,1.23c-.87,1.14.24-.39.34-.44-.29.13-.61.78-.8,1q-2.23,2.8-4.62,5.49a128.43,128.43,0,0,1-10.46,10.54c-1.84,1.65-3.72,3.25-5.66,4.8-.4.32-.81.62-1.2,1,1.76-1.47.25-.2-.18.13-1,.77-2.07,1.52-3.11,2.26a126.71,126.71,0,0,1-13.12,8.06q-3.42,1.82-6.93,3.44c-1.15.54-2.38,1-3.51,1.57.17-.09,1.75-.73.43-.18l-.76.31-2,.81a145.14,145.14,0,0,1-14.79,4.84c-5.1,1.38-10.28,2.49-15.49,3.36-1.27.22-2.53.41-3.8.6l-.82.11c-1.12.17,1.66-.21.53-.07l-2.18.28q-4,.46-8,.78a235.83,235.83,0,0,1-31.9.15c-5.48-.32-11-.81-16.41-1.43l-4-.48-1.7-.21.47.06-1.13-.15c-2.74-.38-5.48-.79-8.2-1.23-10.8-1.73-21.52-3.9-32.18-6.33-5.11-1.17-10.24-2.3-15.29-3.7-2-.57-4.08-1.21-6.08-1.94-1-.37-2-.77-3-1.17-1.32-.53,1.65.72,0,0l-1.71-.78a62.57,62.57,0,0,1-5.92-3.19c-.9-.55-1.78-1.12-2.65-1.73l-1.08-.78c-1.06-.76.54.4.6.47a7,7,0,0,0-.67-.55,39,39,0,0,1-4.34-4.28c-1.19-1.36.89,1.29.17.22-.26-.39-.53-.76-.78-1.15-.52-.82-.87-1.75-1.39-2.56-.07-.11.7,1.85.45,1.07-.07-.24-.18-.48-.26-.72-.15-.42-.28-.84-.39-1.27s-.18-.74-.25-1.12a2.5,2.5,0,0,1-.13-.75c0-.08.18,2.34.16,1,0-.86,0-1.7,0-2.56.07-1.83-.36,1.66-.06.34.12-.56.23-1.11.37-1.66l-3.74,4.87,19.38-11.66c5.44-3.28,5.09-10.74,0-14.08q-3-2-5.86-4c-.7-.53-.55-.41.42.33l-.8-.63c-.4-.33-.79-.65-1.17-1-.9-.77-1.76-1.57-2.58-2.41-.35-.36-.69-.72-1-1.09s-1.54-2.29-.29-.26c-.6-1-1.29-1.85-1.84-2.86a6.29,6.29,0,0,0-.64-1.3q.73,1.82.27.6-.14-.35-.24-.69c-.18-.55-.29-1.11-.45-1.66-.47-1.64,0,2.11,0,.23,0-.49,0-1,0-1.45,0-1.54-.44,1.9-.06.51.15-.54.31-1.08.45-1.62.4-1.47-.9,1.74-.18.39.46-.87,1.08-1.68,1.52-2.54-1,1.9-.66.83-.06.2.33-.36.69-.68,1-1,1.08-1-1.54,1-.37.27l1.36-.82c1.25-.75-1.84.59-.54.21.47-.14,1-.22,1.44-.38-1.77.62-1.71.15-.7.15,2,0-1.59-.5-.35-.07l.36.1c.78.26.48.13-.88-.42.4.32.94.53,1.37.84,3.31,2.34,8.22.86,10.51-2.1a8.14,8.14,0,0,0-.64-10.71c-1.13-1.08-2.23-2.21-3.28-3.38-.51-.57-1-1.15-1.51-1.74-.22-.27-.43-.54-.65-.8-1-1.25,1.07,1.45-.15-.21a46.64,46.64,0,0,1-2.72-4.08c-.35-.58-.68-1.17-1-1.77-.19-.37-.38-.74-.56-1.12s-.82-1.92-.3-.59-.31-.87-.44-1.27c-.24-.73-.45-1.47-.62-2.23-.07-.29-.12-.59-.18-.88-.32-1.58.06,1.71.08.63,0-.77,0-1.58,0-2.36s.42-1.12-.16.91a7.4,7.4,0,0,0,.15-.82c.09-.41.23-.8.33-1.2.18-.69.65-.69-.36.77.35-.5.62-1.15.93-1.69.43-.74,1-.66-.33.41.34-.28.65-.71,1-1l.58-.52c1-1-1.47.92-.6.47.48-.25.92-.59,1.41-.84,1.8-.93-1.88.61,0,0,.57-.18,1.15-.3,1.73-.43,1.39-.32-1.95.16-.92.11l.91-.08c.49,0,1,0,1.48,0,.64,0,1.27,0,1.9.09l.78.08c1.51.12-2-.32-.61-.09,5.33.87,10.47,2.52,15.76,3.54,7.5,1.45,15,1.63,21.91-2.08a8.23,8.23,0,0,0,2.92-11.16,8.32,8.32,0,0,0-11.15-2.92c-.34.18-.72.33-1,.53,1.67-1,1.52-.59.88-.38s-1.21.4-1.84.55c-.92.22-2.78.14-.1.1-.78,0-1.55.12-2.33.12a17.92,17.92,0,0,1-4-.27s2.25.35.95.12l-1.23-.21-2.06-.41c-6.22-1.34-12.26-3.24-18.62-3.8-6.84-.6-13.94,1.44-18.75,6.5-5.93,6.23-7.09,15.07-4.38,23.06,2.86,8.41,8.38,15.83,14.74,21.93l9.88-12.8c-9.22-6.54-21.47-.21-26.2,8.75a21.53,21.53,0,0,0-1.93,16,32,32,0,0,0,8.16,13.5c3.91,4,8.63,7.23,13.29,10.3v-14.08l-17.39,10.46c-2.7,1.63-5,3.22-5.85,6.49a31.8,31.8,0,0,0-.77,5,24.14,24.14,0,0,0,.7,7.57c2.41,10.07,11.06,17.57,19.71,22.45,9.21,5.2,19.25,7.88,29.46,10.29,11.27,2.66,22.61,5,34,7,23.25,3.9,47,6.17,70.54,4.29,23.37-1.86,46.38-7.64,66.95-19.09a139.68,139.68,0,0,0,47.79-44.68,144.82,144.82,0,0,0,22.95-59.79c3.4-24.37,1.09-49-5.55-72.6s-17.21-46.23-29.16-67.68c-5.94-10.66-12.27-21.1-18.79-31.41-5.94-9.38-11.91-18.76-18.21-27.9-11.62-16.81-25.72-34.17-45.47-41.48a43.89,43.89,0,0,0-14.83-2.64c-4.27,0-8.35,3.77-8.15,8.15a8.29,8.29,0,0,0,8.15,8.15Z" transform="translate(-449.79 -352.46)"/><path class="cls-14" d="M1331.21,1685.94c.47-.26.94-.49,1.43-.71l-2,.83a14,14,0,0,1,3.18-.89l-2.16.29a16.15,16.15,0,0,1,4.11,0l-2.17-.29a29.32,29.32,0,0,1,7.22,2.16l-1.94-.82c5.83,2.51,11.3,5.76,17.28,8a30,30,0,0,0,21.66-.16c7.34-3,13.48-7.78,19.84-12.4l20.13-14.66,22.53-16.41a8.81,8.81,0,0,0,3.75-4.87,8.16,8.16,0,0,0-5.69-10c-2-.45-4.54-.44-6.28.83q-24.15,17.58-48.3,35.16a63.34,63.34,0,0,1-12.26,7.48l2-.82a26.08,26.08,0,0,1-5.93,1.69l2.17-.29a21,21,0,0,1-5.26,0l2.16.29a32.72,32.72,0,0,1-8.37-2.46l1.94.83c-5.8-2.48-11.22-5.75-17.17-7.91-6.64-2.41-13.83-2.38-20.1,1.08-3.74,2.06-5.27,7.52-2.92,11.15a8.32,8.32,0,0,0,11.15,2.93Z" transform="translate(-449.79 -352.46)"/><path class="cls-14" d="M974.17,1555.53c11.35-6.76,22.72-13.48,34.23-20,12.84-7.25,25.84-14.26,39.1-20.74,7.5-3.66,15.08-7.16,22.77-10.41l-1.94.83a246.84,246.84,0,0,1,36.32-12.5c3.19-.79,6.41-1.48,9.65-2a8.19,8.19,0,0,0,4.87-3.74,8.38,8.38,0,0,0,.82-6.29,8.26,8.26,0,0,0-3.75-4.87,9.27,9.27,0,0,0-6.28-.82c-20.31,3.59-39.79,11.49-58.47,20-19.74,9-38.85,19.34-57.66,30.12-9.35,5.37-18.62,10.86-27.89,16.37-3.66,2.18-5.32,7.43-2.92,11.15a8.29,8.29,0,0,0,11.15,2.93Z" transform="translate(-449.79 -352.46)"/><path class="cls-14" d="M1436.62,1637.2a87.46,87.46,0,0,1,11.28-5.77l-1.94.83a92.34,92.34,0,0,1,23.31-6.28l-2.17.29a98.27,98.27,0,0,1,25.7.06l-2.17-.29a95.93,95.93,0,0,1,24,6.55l-1.94-.82A88,88,0,0,1,1532,1643l-1.65-1.28c.5.38,1,.77,1.47,1.16a8.86,8.86,0,0,0,5.76,2.39,8.16,8.16,0,0,0,8.16-8.16c-.1-2-.74-4.43-2.39-5.76a98.84,98.84,0,0,0-42.86-20.09,105.43,105.43,0,0,0-47.6,1.44,95.76,95.76,0,0,0-24.5,10.45c-3.64,2.21-5.34,7.41-2.92,11.15s7.25,5.29,11.15,2.93Z" transform="translate(-449.79 -352.46)"/><path class="cls-14" d="M1181.33,1467.65l-9.87,12.53a6.19,6.19,0,0,0-1.68,2.63,6,6,0,0,0-.7,3.14,8.14,8.14,0,0,0,8.15,8.15l2.16-.29a8.21,8.21,0,0,0,3.6-2.1l9.87-12.53a9.07,9.07,0,0,0,2.38-5.76,8.35,8.35,0,0,0-2.38-5.77,8.24,8.24,0,0,0-5.77-2.38l-2.16.29a8.14,8.14,0,0,0-3.6,2.09Z" transform="translate(-449.79 -352.46)"/><path class="cls-14" d="M1333.51,1463.12a15,15,0,0,0-1,2.4c0,.11-.06.22-.09.33a17.89,17.89,0,0,0-.31,2.3,8.94,8.94,0,0,0,.4,3.25,18.07,18.07,0,0,0,1,2.41,3.33,3.33,0,0,0,.33.58,15.67,15.67,0,0,0,2.14,2.67,18.29,18.29,0,0,0,3.78,2.75,16.33,16.33,0,0,1,2.25,1.41l-1.65-1.28a6.23,6.23,0,0,1,1,.94l-1.28-1.65a4,4,0,0,1,.53.89c-.27-.65-.55-1.3-.82-1.94a4.05,4.05,0,0,1,.2.76c-.1-.72-.19-1.44-.29-2.17a2.58,2.58,0,0,1,0,.48c.09-.72.19-1.44.29-2.17a2.5,2.5,0,0,1-.11.39c.27-.65.54-1.3.82-2a1.85,1.85,0,0,1-.21.33l1.27-1.65a1.48,1.48,0,0,1-.28.28l1.65-1.27a2.77,2.77,0,0,1-.57.34l2-.82a3.31,3.31,0,0,1-.82.22l2.17-.29a3.37,3.37,0,0,1-.71,0l2.17.29a2.75,2.75,0,0,1-.41-.11l2,.82-.22-.13,1.64,1.28-.17-.17,1.27,1.65-.09-.15c.28.65.55,1.3.82,1.95a1.05,1.05,0,0,1-.06-.24c.1.72.19,1.44.29,2.16a1.34,1.34,0,0,1,0-.28c-.1.72-.2,1.44-.29,2.17a1.14,1.14,0,0,1,.06-.25,9.09,9.09,0,0,0-.82-6.28,6.07,6.07,0,0,0-2.1-2.28,6.13,6.13,0,0,0-2.77-1.46,8.24,8.24,0,0,0-6.28.82,7.68,7.68,0,0,0-4,6.2c-.05.43-.14.86-.16,1.3s.28,2.13.15,1.15a10.6,10.6,0,0,0,.17,1.17.29.29,0,0,0,0,.09,16.8,16.8,0,0,0,.85,2,7.69,7.69,0,0,0,.73,1,10.08,10.08,0,0,0,.76,1,9.36,9.36,0,0,0,3.9,2.27,8.49,8.49,0,0,0,3.13.4,11.58,11.58,0,0,0,5.12-1.38,10.32,10.32,0,0,0,3.71-3.51,8.6,8.6,0,0,0,1.06-2.35c0-.09.05-.18.07-.27.07-.28.28-1.91.3-2.21,0,0,0-.11,0-.17a12.3,12.3,0,0,0-.16-1.39,13.31,13.31,0,0,0-.23-1.48,11.32,11.32,0,0,0-.53-1.34c-.19-.44-.37-.95-.61-1.38-.08-.13-.16-.26-.25-.38-.46-.64-1-1.32-1.48-1.91a7.23,7.23,0,0,0-.69-.66,24.37,24.37,0,0,0-3.43-2.46,19.36,19.36,0,0,1-2.1-1.25l1.65,1.27a7.72,7.72,0,0,1-1.35-1.33l1.27,1.65a5.4,5.4,0,0,1-.6-1l.83,1.95a3.19,3.19,0,0,1-.19-.67c.09.72.19,1.45.29,2.17a3.1,3.1,0,0,1,0-.68c-.1.73-.19,1.45-.29,2.17a2.94,2.94,0,0,1,.19-.66c-.28.64-.55,1.29-.82,1.94l.13-.26a8.44,8.44,0,0,0,.82-6.28,9,9,0,0,0-3.74-4.87,8.21,8.21,0,0,0-6.28-.82,8.39,8.39,0,0,0-4.87,3.75Z" transform="translate(-449.79 -352.46)"/><path class="cls-14" d="M558.59,1942.4l-14.11-12.88c-2.05-1.88-5.15-3.08-7.93-2.1a25.36,25.36,0,0,0-11.2,7.45,35.67,35.67,0,0,0-6.62,12.1c-2.63,8.13-2.39,16.79-.94,25.11,2.71,15.57,11.61,30,23.18,40.62,11.78,10.79,26.82,18.64,42.71,21a90.79,90.79,0,0,0,27.29-.19,96.79,96.79,0,0,0,24.74-7.63A108.1,108.1,0,0,0,675.45,1995c1.6-2,3.17-4,4.67-6.14a8.21,8.21,0,0,0,.82-6.28,8.14,8.14,0,0,0-10-5.69,9.25,9.25,0,0,0-4.88,3.74q-1.12,1.58-2.31,3.12l1.27-1.65a105.8,105.8,0,0,1-18.71,18.7l1.65-1.28a101.58,101.58,0,0,1-22.41,13.13l2-.82a89.64,89.64,0,0,1-22.55,6.2l2.16-.29a78.47,78.47,0,0,1-20.54,0l2.16.29a71.87,71.87,0,0,1-18.07-5l1.94.82a77.44,77.44,0,0,1-16.84-9.85l1.65,1.28a76,76,0,0,1-13.49-13.45l1.28,1.65a67.73,67.73,0,0,1-8.65-14.71l.83,2a60.17,60.17,0,0,1-4.17-15.06c.09.72.19,1.45.29,2.17a47.44,47.44,0,0,1-.16-12.37c-.09.72-.19,1.44-.29,2.16a35.11,35.11,0,0,1,2.36-8.84l-.83,1.94a26,26,0,0,1,3.09-5.36l-1.28,1.65a19.73,19.73,0,0,1,3.33-3.38l-1.65,1.27a17.51,17.51,0,0,1,3.86-2.24l-1.95.82.92-.35-7.93-2.09,14.11,12.87c3.15,2.88,8.46,3.35,11.53,0,2.87-3.13,3.36-8.45,0-11.52Z" transform="translate(-449.79 -352.46)"/><path class="cls-14" d="M667.5,1991.37A53.75,53.75,0,0,0,676,2020.7a53.11,53.11,0,0,0,10,11.68,54.42,54.42,0,0,0,14.84,9c19,7.92,44.43,3.9,57.76-12.58a39.54,39.54,0,0,0,8.16-15.49,28.86,28.86,0,0,0-.91-17.44,9.25,9.25,0,0,0-2.93-4.23,7.7,7.7,0,0,0-4.93-1.75,9.56,9.56,0,0,0-4.12,1.11,8.1,8.1,0,0,0-3.74,4.87,40,40,0,0,0-.2,12.92,39.17,39.17,0,0,0,3.23,10.55,40.63,40.63,0,0,0,14,16.55c12.26,8.53,29.16,7.78,41.49-.18a39.41,39.41,0,0,0,15.94-19.92,8.14,8.14,0,0,0-5.7-10c-4.58-1-8.48,1.39-10,5.69-.19.54-.4,1.07-.62,1.59l.82-1.95a29.21,29.21,0,0,1-3.59,6.13l1.28-1.65a32.32,32.32,0,0,1-5.76,5.75l1.65-1.27a34.53,34.53,0,0,1-7.34,4.28l1.94-.82a33.53,33.53,0,0,1-8.18,2.25l2.17-.29a30.62,30.62,0,0,1-7.77,0l2.17.29a27.77,27.77,0,0,1-6.94-1.89l1.95.82a30.37,30.37,0,0,1-6.51-3.82l1.65,1.27a33.39,33.39,0,0,1-5.83-5.87l1.28,1.65a34.69,34.69,0,0,1-4.19-7.16c.28.65.55,1.3.82,2a32.68,32.68,0,0,1-2.27-8.29c.09.73.19,1.45.29,2.17a29.48,29.48,0,0,1,0-7.21c-.09.72-.19,1.44-.29,2.16.07-.46.14-.91.22-1.37H750.07a21.81,21.81,0,0,1,1.37,5l-.3-2.16a22.58,22.58,0,0,1,0,5.75c.1-.72.19-1.44.29-2.17a26.83,26.83,0,0,1-1.87,6.63c.28-.65.55-1.29.82-1.94a33.36,33.36,0,0,1-4.18,7l1.28-1.65a37.15,37.15,0,0,1-6.43,6.41l1.65-1.27a37.36,37.36,0,0,1-8.36,4.81l1.94-.82a45.92,45.92,0,0,1-11.17,3l2.17-.29a48.39,48.39,0,0,1-12.78,0l2.17.3a47.11,47.11,0,0,1-11.55-3.17l1.95.82a43.88,43.88,0,0,1-9.48-5.52l1.65,1.28a46.11,46.11,0,0,1-8.05-8l1.28,1.65a48.38,48.38,0,0,1-6.16-10.48l.83,1.95a47.15,47.15,0,0,1-3.24-11.71l.3,2.17a43.47,43.47,0,0,1-.39-6.45c.05-4.27-3.79-8.35-8.15-8.15a8.3,8.3,0,0,0-8.15,8.15Z" transform="translate(-449.79 -352.46)"/><path class="cls-14" d="M1598.73,1977.71a89,89,0,0,0,65.14,24.09,86.76,86.76,0,0,0,60.39-29.41,88.36,88.36,0,0,0,18.66-33.77l-15.71-4.33c-6.24,25.61,12.8,49.55,35.83,58.35,13.65,5.23,28.79,5,43,2.95a164.64,164.64,0,0,0,20.59-4.5,142.22,142.22,0,0,0,16.74-5.58c12.25-5.15,24.86-13.52,27.56-27.54.8-4.18-1.17-9-5.69-10a8.34,8.34,0,0,0-10,5.69c-3.4,10.31,1.91,21.18,10,27.58a44.3,44.3,0,0,0,29.16,9.18c20-.58,39.1-12.22,47.36-30.7a55.87,55.87,0,0,0,4.11-33.79c-.8-4.19-6.07-7-10-5.69-4.47,1.45-6.55,5.53-5.69,10,.1.5.18,1,.27,1.51.34,1.82-.18-2,0-.14.07.85.16,1.7.2,2.55a44.8,44.8,0,0,1-.09,6.13c0,.51-.1,1-.15,1.52-.19,1.84.35-2,0-.14-.16.84-.3,1.68-.48,2.52a48.46,48.46,0,0,1-1.7,5.9c-.17.48-.36,1-.54,1.44-.64,1.71.81-1.72,0-.06-.37.77-.72,1.54-1.11,2.3a45.23,45.23,0,0,1-3.16,5.26c-.12.17-.92,1.06-.9,1.24l.66-.84c-.22.27-.43.54-.65.8q-.81,1-1.68,1.92a47.21,47.21,0,0,1-4.51,4.21c-1.4,1.18,1.52-1,0,0-.42.29-.84.6-1.27.89-.71.49-1.44,1-2.18,1.39s-1.79,1-2.71,1.5l-1.16.57-.71.33c-.8.35-.62.28.53-.21-.79,0-2.14.83-2.91,1.09s-1.64.53-2.47.76c-2,.55-4.16.65-6.08,1.27,2-.65.87-.12.11,0-.51,0-1,.09-1.55.12-.86,0-1.72.09-2.58.09-1,0-2.07,0-3.1-.08l-1-.08-1-.1c-.9-.1-.69-.07.63.1a23.58,23.58,0,0,0-3.06-.55c-.83-.18-1.66-.38-2.48-.62a13.71,13.71,0,0,0-2.84-1c1,0,1.36.63.55.21-.61-.31-1.22-.59-1.82-.92a32.67,32.67,0,0,1-2.83-1.76c-1.07-.75-.05-.58.21.21-.13-.38-1.24-1-1.55-1.32a28.28,28.28,0,0,1-2.11-2.13l-.32-.38c-.54-.67-.42-.5.36.5a8.65,8.65,0,0,0-1.08-1.6c-.25-.4-.48-.82-.7-1.24l-.21-.42c-.36-.78-.27-.56.26.67a9.22,9.22,0,0,0-.45-1.31,17.09,17.09,0,0,0-.42-1.78c.61,1.36.14,1.64.12.81,0-.61,0-1.21,0-1.83,0-1.67-.48,2,0,.32.16-.62.31-1.24.51-1.85l-15.72-4.34a22.42,22.42,0,0,1-.92,3.42c-.07.21-.17.41-.23.61-.29,1,.79-1.63.31-.75-.31.56-.57,1.15-.89,1.71s-.52.86-.79,1.28c-.16.23-1.39,2-.5.74s-.24.24-.47.5c-.44.49-.9,1-1.36,1.42-.79.76-1.76,1.4-2.5,2.19,1.21-1.3,1.11-.83.58-.45l-.73.54c-.56.39-1.13.77-1.7,1.14a54.88,54.88,0,0,1-6.34,3.47c-.56.27-1.14.53-1.71.79-1.3.58,1.65-.68,0,0-1.24.51-2.48,1-3.74,1.43-2.46.88-5,1.66-7.46,2.41-6.24,1.86-12.55,3.52-18.94,4.76-1.52.29-3,.56-4.57.8l-1.22.19c-.3,0-1.63.22-.45.07s.06,0-.14,0l-1.83.21c-3.14.34-6.3.54-9.46.57a79.67,79.67,0,0,1-9.39-.45,10,10,0,0,1-1.2-.14c1.8.46.85.12.37,0-.8-.13-1.6-.25-2.39-.4-1.6-.3-3.18-.66-4.75-1.08-1.37-.36-2.73-.77-4.08-1.24-.61-.21-1.21-.43-1.81-.67-.23-.09-.45-.19-.68-.27,2.24.8.65.27.17,0a50.93,50.93,0,0,1-6.63-3.66,24,24,0,0,0-3-2.11c1.29.55,1.06.84.49.37l-.76-.62c-.51-.42-1-.85-1.49-1.28a53.21,53.21,0,0,1-5.4-5.63c-.2-.24-.39-.52-.61-.75.46.49,1,1.32.25.3-.42-.58-.84-1.17-1.24-1.77-.75-1.12-1.45-2.28-2.1-3.47-.34-.62-.67-1.25-1-1.89-.13-.29-.26-.57-.4-.86-.61-1.29.54,1.38.17.44-.48-1.24-.94-2.48-1.31-3.75a35.79,35.79,0,0,1-.94-4.07c0-.29-.07-.63-.15-.92.14.55.23,1.93.1.56-.06-.69-.11-1.39-.13-2.08a39.2,39.2,0,0,1,.13-4.2c0-.28.16-1.13,0,.15-.22,1.45,0,0,.06-.32.14-.78.31-1.56.49-2.34,1-4.13-1.31-9-5.69-10a8.3,8.3,0,0,0-10,5.69q-1.05,3.64-2.44,7.17c-.12.31-.25.61-.37.91-.33.83.38-.88.35-.82-.29.58-.52,1.19-.8,1.78-.54,1.18-1.12,2.35-1.72,3.51-1.17,2.23-2.45,4.41-3.83,6.52-.67,1-1.36,2-2.08,3l-1,1.38c-.15.19-.3.38-.44.58,1.4-1.93.37-.49.06-.11a82.49,82.49,0,0,1-10.35,10.71c-.93.8-1.88,1.57-2.83,2.34-1.11.88,1.35-1-.1.06-.59.44-1.18.87-1.78,1.29-2.07,1.45-4.2,2.81-6.39,4.06s-4.45,2.4-6.75,3.43l-.82.36c1.23-.53-.49.19-.84.33-1.21.47-2.44.91-3.68,1.32a72,72,0,0,1-7.49,2q-1.87.42-3.78.72c-.38.07-2.3.34-.95.16s.14,0-.19,0l-1.27.14a78.86,78.86,0,0,1-15.89,0l-1.79-.2c-.92-.09,1,.14.9.13l-1-.15c-1.36-.2-2.71-.44-4.05-.71-2.6-.52-5.18-1.18-7.72-2-1.39-.43-2.77-.89-4.14-1.39-.73-.26-1.45-.53-2.16-.82l-.72-.28c-1.71-.68,1.73.77.06,0a84.93,84.93,0,0,1-7.8-3.93,76,76,0,0,1-7.3-4.75l-.83-.61c-1.41-1,1,.83.23.17-.59-.49-1.2-1-1.79-1.46-1.18-1-2.32-2-3.44-3.09-3.09-2.94-8.49-3.3-11.52,0s-3.3,8.38,0,11.52Z" transform="translate(-449.79 -352.46)"/><path class="cls-14" d="M1962.68,1910.4c.12.59.22,1.19.31,1.79-.1-.73-.19-1.45-.29-2.17a29.81,29.81,0,0,1,0,8c.1-.72.2-1.44.29-2.16a32.08,32.08,0,0,1-2.12,7.68l.82-2a31.61,31.61,0,0,1-4,6.88l1.28-1.65a29.48,29.48,0,0,1-5.12,5.11l1.65-1.27c-.39.29-.78.58-1.18.85a8.78,8.78,0,0,0-3.74,4.87,8.32,8.32,0,0,0,.82,6.29c2.24,3.47,7.41,5.53,11.15,2.92a36.51,36.51,0,0,0,8-7.24,42.73,42.73,0,0,0,6.25-10.81,37.6,37.6,0,0,0,1.69-21.43c-.85-4.18-6-7-10-5.69a8.35,8.35,0,0,0-5.69,10Z" transform="translate(-449.79 -352.46)"/><path class="cls-14" d="M1734.17,1788.57q.58,3.56,1.06,7.12c-.1-.72-.19-1.45-.29-2.17a258.9,258.9,0,0,1,1.56,53.38q-.57,7.55-1.57,15c.1-.72.19-1.44.29-2.16q-1.24,9.27-3.16,18.43a8.68,8.68,0,0,0,.82,6.28,8.28,8.28,0,0,0,4.87,3.75c4.08.93,9.1-1.23,10-5.69a266.21,266.21,0,0,0,4.9-75.66c-.62-7.58-1.57-15.14-2.79-22.64-.3-1.89-2.16-4-3.74-4.87a8.31,8.31,0,0,0-6.28-.83,8.2,8.2,0,0,0-4.87,3.75,9.33,9.33,0,0,0-.83,6.28Z" transform="translate(-449.79 -352.46)"/><path class="cls-14" d="M748,1894.1a124,124,0,0,1-.29,30.25c.1-.72.2-1.45.29-2.17-.38,2.87-.87,5.71-1.45,8.54a8.68,8.68,0,0,0,.82,6.28,8.32,8.32,0,0,0,4.87,3.75c4.07.93,9.11-1.23,10-5.69a130.74,130.74,0,0,0,2-41,8.86,8.86,0,0,0-2.38-5.76,8.15,8.15,0,0,0-11.53,0c-1.37,1.49-2.63,3.66-2.39,5.76Z" transform="translate(-449.79 -352.46)"/><path class="cls-14" d="M863.66,1700.15c1.77-.28,3.54-.55,5.32-.79l-2.17.29a216.15,216.15,0,0,1,23.16-1.83,139.93,139.93,0,0,1,21.37.74l-2.16-.29a36.39,36.39,0,0,1,9.23,2.4l-1.94-.82a22.84,22.84,0,0,1,4.52,2.6l-1.65-1.28a19.83,19.83,0,0,1,3.41,3.38l-1.28-1.65a19.48,19.48,0,0,1,2.33,4c-.27-.65-.54-1.3-.82-2a22.38,22.38,0,0,1,1.49,5.57c-.09-.72-.19-1.44-.29-2.17a26,26,0,0,1,0,6.59c.09-.72.19-1.44.29-2.16a26.58,26.58,0,0,1-1.78,6.37c.27-.65.54-1.3.82-2a32.77,32.77,0,0,1-4,6.7l1.27-1.65a43.11,43.11,0,0,1-7.53,7.44l1.65-1.27a63,63,0,0,1-5.54,3.79,8.18,8.18,0,0,0-3.34,10.18c1.44,3.41,5.83,6.2,9.62,4.71a19.58,19.58,0,0,1,4.47-1.15l-2.17.29a21.61,21.61,0,0,1,5.27,0L921,1746a22.77,22.77,0,0,1,5.42,1.52l-2-.82a22.44,22.44,0,0,1,4.57,2.66l-1.65-1.27a20.58,20.58,0,0,1,3.52,3.46l-1.28-1.65a18.57,18.57,0,0,1,2.36,4l-.82-2a19.7,19.7,0,0,1,1.29,4.77l-.3-2.17a21.12,21.12,0,0,1,0,5.27c.1-.72.19-1.44.29-2.16a22.72,22.72,0,0,1-1.46,5.43l.82-1.95A22.2,22.2,0,0,1,929,1766l1.27-1.65a20.45,20.45,0,0,1-3.24,3.27l1.65-1.27a20.5,20.5,0,0,1-2.49,1.63,8.17,8.17,0,0,0,6.28,14.9c.45-.11.9-.2,1.36-.27l-2.17.29a12.29,12.29,0,0,1,3,0l-2.16-.29a13.47,13.47,0,0,1,2.92.81l-1.94-.83a16.32,16.32,0,0,1,3.27,1.88l-1.65-1.27a17.34,17.34,0,0,1,3,3l-1.27-1.65a16.8,16.8,0,0,1,2.12,3.64c-.27-.65-.55-1.29-.82-1.94a15.1,15.1,0,0,1,.93,3.36c-.1-.72-.2-1.44-.29-2.16a19.22,19.22,0,0,1,0,4.61c.09-.72.19-1.44.29-2.17a21.74,21.74,0,0,1-1.4,5.2l.82-2a26.24,26.24,0,0,1-3.36,5.74l1.27-1.65a29.5,29.5,0,0,1-5.05,5l1.65-1.28a42.88,42.88,0,0,1-9.2,5.22l1.95-.83a119.15,119.15,0,0,1-16.19,5.08,159,159,0,0,1-18.21,3.66l2.17-.29a89.69,89.69,0,0,1-23.32.28l2.17.29a64.67,64.67,0,0,1-16.29-4.37l2,.82a53.31,53.31,0,0,1-11.77-6.81l1.65,1.28a45.83,45.83,0,0,1-8-8l1.28,1.65a52.85,52.85,0,0,1-6.61-11.6l.82,2c-4.19-10.11-6.11-21.13-7.56-31.92l.3,2.17a215.32,215.32,0,0,1,0-56.82c-.09.72-.19,1.45-.29,2.17a99.85,99.85,0,0,1,6.27-24.91c-.27.65-.54,1.29-.82,1.94a57.26,57.26,0,0,1,7.21-12.54l-1.27,1.65a47.87,47.87,0,0,1,8.36-8.35l-1.65,1.28a40.38,40.38,0,0,1,8.44-5l-2,.82a34.68,34.68,0,0,1,8.31-2.32l-2.17.3.38,0c2.25-.31,4.09-.72,5.76-2.39a8.15,8.15,0,0,0,0-11.53c-1.47-1.35-3.68-2.66-5.76-2.39a43.56,43.56,0,0,0-9.11,2,47.25,47.25,0,0,0-8.38,3.9A51.29,51.29,0,0,0,829,1658c-8,9.53-12.73,21.18-15.23,33.31A198,198,0,0,0,810,1730a228,228,0,0,0,3.42,39.81c2,11.64,4.89,23.59,11.23,33.71a51.25,51.25,0,0,0,11.47,13,65.28,65.28,0,0,0,16.22,9.37c10.9,4.47,23.1,5.69,34.78,4.84a158,158,0,0,0,38-7.84,58.14,58.14,0,0,0,17.8-9.18,33.93,33.93,0,0,0,10.86-15.23,24.93,24.93,0,0,0-1.17-19.51,23.3,23.3,0,0,0-14.26-11.75,20,20,0,0,0-10.2-.07q3.14,7.45,6.28,14.9a27.06,27.06,0,0,0,10.85-11.33,29.31,29.31,0,0,0,3.3-15.36,27.51,27.51,0,0,0-6.75-16.09A28.89,28.89,0,0,0,928.6,1731a27.1,27.1,0,0,0-17.3.39q3.13,7.44,6.28,14.89c7.39-4.49,14.29-10.42,18.58-18s5.93-17.37,3.17-25.93a26.49,26.49,0,0,0-7.45-11.85,32.35,32.35,0,0,0-12.52-6.73,60.6,60.6,0,0,0-12.85-2c-4.53-.29-9.07-.36-13.6-.32a226.36,226.36,0,0,0-33.59,3c-1.89.3-3.94,2.17-4.87,3.75a8.34,8.34,0,0,0-.82,6.28,8.26,8.26,0,0,0,3.75,4.87,9.44,9.44,0,0,0,6.28.82Z" transform="translate(-449.79 -352.46)"/><path class="cls-14" d="M1150.5,583.68c-3,24.6-5.94,49.2-8.56,73.85-2.62,24.81-4.9,49.66-6.48,74.56-1.57,24.66-2.45,49.38-2.3,74.1s1.35,49.37,3.94,73.93a592.19,592.19,0,0,0,12.21,73.19c.72,3,1.46,6.06,2.22,9.07,1.55,6.1,11,3.52,9.43-2.6a559.25,559.25,0,0,1-13.2-71.86A720.58,720.58,0,0,1,1143,814.8c-.4-24.7.28-49.41,1.68-74.07s3.54-49.52,6.07-74.21,5.41-49.06,8.37-73.56c.37-3.09.75-6.19,1.12-9.28.32-2.63-2.47-4.89-4.89-4.89-2.91,0-4.57,2.25-4.89,4.89Z" transform="translate(-449.79 -352.46)"/></g></svg>