<svg id="Layer_1" data-name="Layer 1" xmlns="http://www.w3.org/2000/svg" viewBox="0 0 384.93 254.26"><defs><style>.cls-1{fill:#ff58aa;}.cls-2{fill:#84f23b;}.cls-3{fill:#b84db7;}.cls-4{fill:#12f5e2;}.cls-5{fill:#13c08a;}.cls-6{fill:#00112d;}.cls-7{fill:#fff;}</style></defs><title>logo</title><path class="cls-1" d="M540.05,603.62l-68.87,4.73a57.06,57.06,0,0,1-57-57.35l-5.14-87.07a57.41,57.41,0,0,1,57.39-57.34l31.8,3.19a50.59,50.59,0,0,0-1.49,12.42l11.47,130.93C508.24,574.84,521,593.74,540.05,603.62Z" transform="translate(-409.07 -358.86)"/><path class="cls-2" d="M794,551a57.38,57.38,0,0,1-57.35,57.35l-67-6.64c17.15-10.25,28.46-28.14,28.46-48.58l17.25-136.24a57.48,57.48,0,0,0-.74-9.13l16.78-1.17a57.32,57.32,0,0,1,57.28,57.34Z" transform="translate(-409.07 -358.86)"/><path class="cls-3" d="M628.76,597.67c-.68.06-1.43.06-2.12.06l-86.59,5.89c-19-9.88-31.81-28.78-31.81-50.49L496.77,422.2a50.59,50.59,0,0,1,1.49-12.42l76.82,7.48c-30.85.9-54,26.23-54,57.29v60.53c0,31.64,24.06,57.34,55.76,57.34Z" transform="translate(-409.07 -358.86)"/><path class="cls-4" d="M679.12,479.86v60.53c0,31-21.49,56.17-52.12,57.28l-51-5.25c-31.7,0-54.88-25.7-54.88-57.34V474.55c0-31.06,23.11-56.39,54-57.29l50.51,5.26C657.28,422.52,679.12,448.22,679.12,479.86Z" transform="translate(-409.07 -358.86)"/><path class="cls-5" d="M715.36,416.89,698.11,553.13c0,20.44-11.31,38.33-28.46,48.58l-42.65-4c30.63-1.11,52.12-26.33,52.12-57.28V479.86c0-31.64-22.6-57.34-54.3-57.34l-52.15-5.26c.58-.05,1.61-.05,2.19-.05l139.53-9.45A57.56,57.56,0,0,1,715.36,416.89Z" transform="translate(-409.07 -358.86)"/><path class="cls-4" d="M669.65,602.77c-9.72,5.89-21.24,10.35-33.66,10.35H570.36c-11,0-21.34-3.72-30.31-8.45l86.59-6.42c.69,0,1.44.27,2.12.22Z" transform="translate(-409.07 -358.86)"/><path class="cls-4" d="M573.55,417.26l-75.29-7.48c6.06-26.07,30.85-45.56,60.64-45.56l94.34-5.36c31,0,56.7,21.23,61.38,48.9L575.3,417.21C574.72,417.21,574.13,417.21,573.55,417.26Z" transform="translate(-409.07 -358.86)"/><path class="cls-6" d="M703.56,501.38c0,55.25-50.1,105.36-105.36,105.36s-94.74-44.8-94.74-100.06S543,406.63,598.2,406.63,703.56,446.12,703.56,501.38Z" transform="translate(-409.07 -358.86)"/><path class="cls-7" d="M676.83,506.26c0,42.51-38.54,81.06-81.06,81.06s-72.89-34.47-72.89-77,30.37-77,72.89-77S676.83,463.75,676.83,506.26Z" transform="translate(-409.07 -358.86)"/><path class="cls-6" d="M686.57,498.94c0,43.92-39.83,83.75-83.75,83.75s-75.31-35.61-75.31-79.53,31.39-79.53,75.31-79.53S686.57,455,686.57,498.94Z" transform="translate(-409.07 -358.86)"/><path class="cls-7" d="M655.59,453.62a11.11,11.11,0,0,1-10.71,10.7c-5.62,0-9.63-4.55-9.63-10.16s4-10.17,9.63-10.17S655.59,448,655.59,453.62Z" transform="translate(-409.07 -358.86)"/><path class="cls-7" d="M671.69,475.76a6.22,6.22,0,0,1-6,6,5.7,5.7,0,0,1,0-11.39C668.84,470.36,671.69,472.61,671.69,475.76Z" transform="translate(-409.07 -358.86)"/></svg>